<svg style="opacity: 0.1;" width="1500" height="950" viewBox="0 0 1500 950" fill="none" xmlns="http://www.w3.org/2000/svg">
<path d="M1499.97 76.1691C1499.6 75.1055 1499.34 74.0075 1499.19 72.8917C1498.78 61.3209 1496.55 50.2698 1490.9 39.988C1487.68 34.1127 1485.43 27.7278 1481.11 22.4221C1478.09 18.6293 1474.33 15.4829 1470.08 13.1695C1463.91 9.84213 1457.72 6.65468 1450.79 5.26579C1438.9 3.05651 1426.82 2.08544 1414.74 2.36811C1399.04 2.52798 1383.82 5.3657 1368.51 8.36331C1361.4 9.7422 1354.14 10.3617 1347.1 12.0104C1327.23 16.6267 1307.64 22.3122 1288.25 28.5572C1277.79 31.9345 1267.64 36.281 1257.33 40.1179C1244.24 44.974 1231.06 49.5803 1218.07 54.6563C1210.09 57.7838 1202.37 61.6507 1194.51 65.0879C1179.4 71.7426 1164.2 78.1875 1149.18 85.0719C1140.15 89.1887 1131.42 93.9848 1122.5 98.3613C1111.05 103.977 1099.5 109.353 1088.07 115.038C1077.57 120.214 1067.55 126.323 1058.15 133.293C1055.45 135.292 1052.54 137 1049.72 138.819C1040.32 144.814 1030.91 150.809 1021.55 156.805C1015.9 160.452 1010.2 164.029 1004.74 167.946C987.605 180.286 970.588 192.786 953.502 205.186C950.35 207.474 947.078 209.612 943.826 211.741C932.735 218.995 923.009 227.898 913.224 236.721C912.037 237.8 910.771 238.799 909.514 239.818L884.797 259.902C884.507 260.132 884.178 260.312 883.111 261.001C883.959 259.123 884.488 258.004 884.996 256.805C889.984 245.474 895.16 234.253 899.789 222.832C903.662 212.923 906.246 202.556 907.479 191.986C908.274 185.014 907.698 177.953 905.783 171.203C905.404 170.135 905.296 168.989 905.47 167.869C905.645 166.749 906.095 165.69 906.781 164.788C913.135 156.225 919.748 148.141 929.782 143.325C937.956 139.256 946.609 136.235 955.537 134.333C956.724 134.131 957.885 133.796 958.998 133.333C960.123 132.853 961.054 132.007 961.642 130.933C962.23 129.858 962.44 128.617 962.239 127.408C962.117 126.176 961.536 125.035 960.612 124.213C959.687 123.391 958.488 122.948 957.252 122.972C953.648 123.234 950.059 123.681 946.5 124.311L943.507 124.76C943.417 124.48 943.318 124.201 943.218 123.911C945.263 123.082 947.288 122.212 949.342 121.433C950.888 121.014 952.404 120.493 953.881 119.874C955.031 119.278 955.931 118.29 956.417 117.088C956.904 115.886 956.945 114.549 956.534 113.319C956.275 112.187 955.626 111.183 954.701 110.483C953.776 109.783 952.635 109.433 951.477 109.492C948.403 109.636 945.372 110.274 942.5 111.381C929.752 116.877 918.561 124.57 909.783 135.562C903.798 143.066 898.302 150.829 895.051 159.962C894.778 160.793 894.318 161.55 893.705 162.174C893.093 162.798 892.345 163.272 891.52 163.559C885.535 165.867 882.991 170.693 882.173 176.629C881.616 180.358 881.306 184.12 881.246 187.89C881.246 206.255 877.007 223.861 872.089 241.407C869.216 251.649 865.456 261.641 859.651 270.624C855.661 276.819 851.043 282.614 846.584 288.529C844.719 290.987 842.484 293.156 840.49 295.524C839.536 296.779 838.337 297.826 836.964 298.599C835.592 299.372 834.076 299.856 832.51 300.02C830.455 299.231 829.428 297.472 829.059 295.204C828.69 292.936 829.168 291.447 831.383 290.208C835.732 287.88 838.684 284.103 841.547 280.086C848.25 270.703 850.614 260.032 851.192 248.931C851.521 242.496 850.833 235.791 847.621 230.106C842.634 221.283 835.093 215.058 824.77 213.989C816.531 213.13 808.152 213.509 799.833 213.549C797.838 213.549 795.923 214.408 793.669 214.948C793.729 214.134 793.832 213.323 793.978 212.52C795.973 203.467 797.349 194.185 800.322 185.452C803.693 175.57 808.302 166.067 812.83 156.625C816.201 149.63 820.361 142.986 824.101 136.141C826.286 132.144 828.5 128.147 830.395 124.011L839.861 109.422C846.284 101.312 853.625 93.9758 861.735 87.56C892.527 63.2694 930.869 54.4664 975.705 61.3709C996.203 64.5284 1013.95 66.8265 1028.82 68.2454C1033 76.6087 1045.85 82.6939 1061.06 82.6939C1079.66 82.6939 1094.74 73.5911 1094.74 62.3601C1094.74 51.1291 1079.66 42.0364 1061.06 42.0364C1046.02 42.0364 1033.28 48.0316 1028.96 56.215C1015.74 54.9261 998.926 52.8177 977.531 49.5204C917.124 40.2178 876.937 60.1519 853.846 78.4972C839.69 89.6413 827.833 103.437 818.935 119.115C816.142 123.881 808.282 137.43 807.603 139.988C803.534 147.572 799.803 155.316 796.482 163.279C793.689 169.974 790.387 176.459 787.814 183.263C785.52 189.259 783.904 195.564 781.979 201.719C781.739 202.488 781.43 203.227 781.131 204.047C759.695 188.939 739.457 190.757 720.186 208.563C717.902 201.359 715.797 194.574 713.593 187.85C712.594 184.36 711.361 180.941 709.902 177.618C703.01 163.559 697.015 149.131 689.175 135.582L680.058 119.724C679.45 118.575 678.522 116.916 677.255 114.838C668.608 100.964 657.638 88.6877 644.828 78.5472C621.747 60.1819 581.569 40.2478 521.143 49.5703C499.747 52.8677 482.93 54.976 469.714 56.265C465.395 48.0416 452.657 42.0863 437.616 42.0863C419.013 42.0863 403.931 51.1891 403.931 62.4101C403.931 73.6311 419.013 82.7438 437.616 82.7438C452.817 82.7438 465.674 76.6587 469.853 68.2954C484.726 66.8765 502.47 64.5783 522.968 61.4209C567.854 54.5164 606.146 63.3194 636.938 87.6099C649.337 97.3725 659.87 109.302 668.029 122.822L672.817 131.755C675.38 136.611 678.073 141.407 680.796 146.153C688.25 158.931 694.565 172.342 699.668 186.231C703.06 195.494 704.715 205.396 707.319 215.727C705.713 215.308 704.895 215.108 704.087 214.878C698.102 213.149 692.117 213.569 686.133 214.818C684.696 215.118 683.32 215.677 681.883 216.017C667.52 219.335 659.381 229.007 656.638 242.826C653.895 256.645 655.95 269.984 664.897 281.435C667.173 284.271 669.969 286.645 673.136 288.429C677.076 290.667 677.335 294.714 676.567 298.651C676.182 300.5 675.255 302.191 673.904 303.508C672.554 304.826 670.841 305.709 668.986 306.045C667.171 306.305 666.233 305.236 665.246 304.147C661.209 299.65 657.183 295.134 653.167 290.598C638.205 273.711 630.115 253.547 625.238 231.855C623.692 224.86 622.046 217.936 621.148 210.871C620.151 203.018 620.031 195.054 619.363 187.15C619.083 183.533 618.547 179.94 617.757 176.399C617.329 174.337 616.391 172.416 615.028 170.813C613.664 169.21 611.921 167.977 609.957 167.226C608.843 166.782 607.842 166.095 607.026 165.216C606.21 164.336 605.599 163.286 605.239 162.14C600.251 149.221 592.042 138.379 581.768 129.307C574.926 123.311 567.335 118.046 558.637 114.818C556.267 113.885 553.807 113.199 551.296 112.77C547.466 112.2 544.703 114.039 544.154 117.036C543.526 120.524 545.241 122.942 549.142 124.141C551.446 124.85 553.72 125.64 555.984 126.469C556.32 126.623 556.613 126.856 556.839 127.148C557.064 127.441 557.216 127.784 557.281 128.147C554.957 127.688 552.653 127.148 550.299 126.809C548.053 126.414 545.776 126.227 543.496 126.249C542.265 126.266 541.082 126.729 540.165 127.552C539.249 128.374 538.66 129.502 538.509 130.725C538.31 131.935 538.523 133.177 539.115 134.25C539.707 135.323 540.642 136.165 541.77 136.641C543.009 137.156 544.305 137.518 545.63 137.72C556.762 139.718 566.886 144.255 576.651 149.71C581.639 152.478 584.9 156.994 588.561 161.081C590.771 163.613 592.772 166.32 594.546 169.175C595.25 170.284 595.503 171.621 595.254 172.912C591.823 185.072 592.81 197.072 595.853 209.163C598.776 220.767 602.739 232.084 607.692 242.976C608.39 244.356 608.811 245.86 608.929 247.402C608.216 247.052 607.532 246.645 606.884 246.183C593.917 235.332 580.951 224.331 567.834 213.639C561.38 208.383 554.498 203.647 547.765 198.731C536.633 190.538 525.482 182.374 514.211 174.321C511.268 172.222 508.076 170.454 504.974 168.595C496.216 163.339 487.518 157.984 478.651 152.918C465.135 145.174 451.47 137.67 437.905 130.006C431.591 126.429 425.257 122.882 419.093 119.015C403.792 109.545 387.723 101.382 371.055 94.6143C360.253 90.1879 349.62 85.3218 339.136 80.2258C324.174 72.9716 308.724 66.7266 293.253 60.6715C278.88 55.046 264.716 48.9009 250.482 42.9157C247.49 41.6767 244.657 40.1579 241.734 38.789C231.71 34.0827 221.007 31.4648 210.434 28.3973C197.677 24.7002 184.959 20.8733 172.182 17.2462C163.015 14.6483 153.768 12.3102 144.572 9.81216C130.21 5.83995 115.569 2.964 100.773 1.20903C95.7162 0.629496 90.6093 0.449642 85.5322 0.0799379L66.6303 0C56.8452 0.839329 47.2497 2.31815 38.3823 6.9944C27.9887 12.51 19.0216 19.4744 13.4458 30.1759C11.7202 33.5032 9.45592 36.6807 8.37866 40.1679C6.24247 46.5024 4.6311 53.0026 3.56093 59.6023C2.16449 69.5943 1.65578 79.5863 0.738118 89.6383C0.592598 90.6871 0.392839 91.7277 0.139644 92.7558C0.0997454 98.751 0.0531979 104.746 0 110.741C0.344456 112.578 0.580928 114.433 0.708196 116.297C0.88754 131.09 2.05384 145.854 4.19931 160.492C7.8246 184.981 14.2748 208.965 23.4204 231.964C28.3478 244.315 32.6768 256.944 37.694 269.215C44.8657 286.831 54.2219 303.317 64.2963 319.414C66.9994 323.741 69.2038 328.407 71.867 332.744C77.5326 342.036 83.3078 351.269 89.1031 360.482C93.7612 367.886 98.5291 375.21 103.207 382.594C108.035 390.208 112.653 397.962 117.66 405.456C120.713 410.022 124.274 414.259 127.635 418.585C130.996 422.912 134.677 427.078 138.019 431.455C145.617 441.241 154.26 450.167 163.793 458.074C173.658 466.437 183.602 474.68 195.163 480.596C202.085 484.143 209.297 487.14 216.379 490.358C218.314 491.237 220.289 492.026 222.084 492.796C222.334 497.422 222.434 501.789 222.813 506.025C224.027 518.764 227.4 531.202 232.787 542.806C238.576 555.88 245.456 568.441 253.355 580.356C256.936 585.682 261.334 590.498 265.434 595.454C269.035 599.8 272.935 603.907 276.466 608.313C281.383 614.468 287.438 619.385 293.293 624.56C299.148 629.736 304.894 634.552 310.739 639.548C322.423 649.244 334.754 658.131 347.645 666.147C359.913 673.931 372.212 681.615 385.548 687.55C388.46 688.899 391.459 690.05 394.525 690.997C404.171 693.815 413.856 696.503 423.551 699.141C429.377 700.729 435.212 702.318 441.117 703.557C444.673 704.117 448.255 704.497 451.849 704.696C454.652 704.986 457.455 705.496 460.258 705.536C472.367 705.705 484.516 706.425 496.565 705.606C505.862 704.986 515.118 702.758 524.225 700.61C537.485 697.447 549.813 691.193 560.203 682.354C562.567 680.356 564.752 678.158 567.036 676.079C567.317 675.829 567.646 675.639 568.002 675.52C568.359 675.402 568.736 675.357 569.111 675.39C568.682 676.559 568.303 677.758 567.814 678.907C563.615 688.979 560.114 699.261 558.657 710.152C557.899 715.837 558.558 721.083 562.318 725.749C563.203 727.078 563.675 728.639 563.674 730.236C564.357 746.559 561.527 762.837 555.376 777.968C553.6 782.913 550.724 787.389 546.967 791.057C545.202 792.686 543.845 794.754 542.239 796.563C540.364 798.661 538.409 800.69 536.494 802.748C535.945 803.337 535.357 803.897 534.868 804.536C533.87 805.765 533.372 807.114 534.249 808.633C534.611 809.295 535.185 809.814 535.879 810.108C536.572 810.402 537.344 810.453 538.07 810.252C539.902 809.938 541.652 809.258 543.217 808.253C545.606 806.295 547.875 804.193 550.009 801.958C552.234 799.81 554.388 797.602 556.622 795.464C557.139 795.125 557.699 794.859 558.288 794.674C558.429 795.494 558.429 796.332 558.288 797.152C556.58 801.407 554.158 805.337 551.127 808.773C549.577 810.432 548.307 812.332 547.366 814.398C547.206 815.015 547.176 815.657 547.28 816.286C547.383 816.914 547.616 817.513 547.965 818.046C548.822 819.405 550.299 818.905 551.585 818.265C556.842 815.688 561.56 812.54 564.702 807.334C567.752 802.416 570.194 797.145 571.973 791.637C574.427 783.643 577.34 775.859 579.794 767.906C582.786 758.094 582.686 747.982 582.018 737.88C581.808 734.662 581.26 731.455 581.19 728.237C581.19 726.729 581.399 724.73 582.337 723.741C587.484 718.345 589.768 711.591 591.424 704.666C594.556 691.597 597.189 678.407 600.241 665.318C602.775 654.456 605.229 643.535 608.47 632.884C610.864 625.08 614.525 617.656 617.617 610.062L618.275 607.914L618.814 608.024L618.545 610.232C615.114 626.219 611.323 642.206 610.565 658.673C610.076 669.155 609.807 679.656 609.847 690.138C609.847 699.281 610.406 708.433 610.844 717.566C611.371 728.841 612.954 740.041 615.572 751.019C617.916 760.941 619.502 771.063 622.176 780.895C626.295 796.063 630.205 811.451 637.756 825.31C646.823 841.917 655.301 858.903 666.064 874.56C671.996 883.046 678.526 891.097 685.604 898.651C690.97 904.486 696.018 910.642 701.484 916.367C708.291 923.619 715.897 930.076 724.156 935.612C727.078 937.53 729.961 939.498 732.794 941.547C738.487 945.868 745.244 948.562 752.344 949.341C752.833 949.484 753.294 949.707 753.711 950H765.012C765.201 949.82 765.361 949.521 765.57 949.481C779.724 946.953 790.706 939.229 800.062 928.657C806.835 921.003 814.027 913.669 820.79 906.055C823.764 902.599 826.535 898.973 829.089 895.194C831.862 891.197 834.415 887.11 837.068 883.034C845.646 869.684 854.294 856.375 862.693 842.916C864.798 839.528 866.094 835.632 867.76 831.925C875.365 814.996 881.583 797.475 886.353 779.536C886.714 778.103 887.167 776.695 887.709 775.32C893.375 761.711 895.739 747.212 899.16 732.984C902.98 717.076 902.911 700.939 902.153 684.802C901.764 676.119 900.327 667.496 899.39 658.823C899.35 658.241 899.35 657.657 899.39 657.074C902.661 671.473 905.863 686.131 909.364 700.729C911.09 707.924 913.354 714.998 918.77 720.514C920.336 722.102 919.927 724.271 919.688 726.289C918.532 735.234 918.311 744.276 919.03 753.267C919.818 761.93 922.61 770.074 925.363 778.247C926.717 782.755 928.298 787.19 930.101 791.537C932.407 796.682 935.074 801.657 938.081 806.425C940.814 810.741 945.333 813.17 949.921 815.188C952.514 816.327 954.769 814.409 953.831 811.751C952.988 809.499 951.702 807.44 950.051 805.695C947.022 802.26 944.57 798.356 942.789 794.135C942.511 793.073 942.344 791.984 942.29 790.887C945.198 792.919 947.874 795.264 950.27 797.882C952.764 800.33 955.257 802.808 957.841 805.126C958.65 805.844 959.601 806.383 960.632 806.709C961.663 807.034 962.752 807.138 963.826 807.014C966.818 806.725 967.935 804.407 966.449 801.819C966.105 801.244 965.7 800.708 965.242 800.22C960.624 795.164 955.876 790.228 951.407 785.042C947.567 780.596 945.422 775.13 943.627 769.644C938.989 755.885 936.505 741.767 937.263 727.198C937.266 725.473 937.768 723.786 938.709 722.342C940.408 720.236 941.609 717.772 942.221 715.134C942.832 712.497 942.839 709.755 942.24 707.114C940.954 700.54 939.248 694.055 937.592 687.55C937.173 685.881 936.595 684.253 935.787 681.725C937.124 682.794 937.782 683.263 938.4 683.833C942.949 688.15 948.554 690.827 953.961 693.825C963.845 699.251 974.488 702.068 985.68 703.517C994.996 704.716 1004.32 705.626 1013.67 706.515C1026.79 707.762 1040.02 707.088 1052.95 704.516C1069.14 701.379 1085.23 697.802 1100.83 692.216C1102.99 691.478 1105.11 690.617 1107.17 689.638C1120.14 683.203 1133.3 677.148 1145.8 669.704C1158.3 662.26 1169.99 653.717 1181.71 645.124C1185.13 642.511 1188.69 640.074 1192.35 637.82C1200.7 632.934 1207.54 626.369 1214.01 619.265C1217.9 615.032 1222.01 611.007 1226.32 607.204C1244.82 590.633 1259.57 570.286 1269.58 547.532C1273.83 537.633 1276.62 527.164 1277.85 516.457C1279.01 508.561 1279.08 500.541 1278.06 492.626C1279.9 491.627 1281.57 490.448 1283.36 489.628C1293.77 484.792 1303.26 478.467 1312.68 471.992C1320.43 466.657 1328.27 461.441 1336 456.085C1337.86 454.766 1339.6 453.281 1341.19 451.649C1350.17 442.716 1358.99 433.663 1368 424.79C1372.41 420.263 1376.32 415.26 1379.64 409.872C1381.63 406.705 1383.76 403.567 1385.9 400.48C1393.42 389.648 1401.36 379.097 1408.38 367.966C1414.55 358.213 1419.69 347.802 1425.34 337.7C1429.19 330.775 1433.08 323.871 1436.95 316.946C1446 300.442 1453.99 283.382 1460.89 265.867C1471.86 238.679 1481.62 211.091 1488.97 182.684C1491.85 171.637 1493.91 160.392 1495.14 149.041C1496.06 140.498 1497.57 132.054 1498.67 123.501C1499.05 120.574 1499.03 117.606 1499.19 114.648C1499.31 112.85 1498.39 110.891 1500 109.313L1499.97 76.1691ZM1286.12 54.0468C1287.1 52.7812 1288.42 51.8155 1289.92 51.259C1311.46 43.715 1333.18 36.7306 1355.75 32.7438C1356.93 32.534 1358.15 32.494 1359.36 32.3741C1366.04 31.0452 1372.67 29.3265 1379.42 28.5572C1383.41 28.0975 1387.68 28.9668 1391.77 29.5564C1393.36 29.8395 1394.83 30.5949 1395.98 31.7246C1400.54 36.191 1403.48 41.3769 1403.14 48.1315C1402.64 58.3233 1402.48 68.5352 1402.04 78.737C1401.71 86.241 1401.81 93.8449 1400.59 101.209C1398.97 111.041 1393.84 119.005 1384.63 123.661C1382.73 124.638 1380.64 125.178 1378.5 125.24C1364.79 125.38 1351.09 125.32 1337.38 125.3C1336.86 125.221 1336.35 125.08 1335.87 124.88C1320.15 124.45 1304.45 124.241 1288.83 126.729C1281.85 127.848 1274.72 128.437 1267.65 129.227C1265.5 129.466 1264.29 128.517 1264.28 126.229C1264.32 123.945 1264.53 121.667 1264.91 119.414C1266.45 109.193 1267.62 98.8809 1269.76 88.769C1272.44 76.0092 1278.31 64.5084 1286.12 54.0468ZM1274.75 367.106C1269.19 364.538 1263.35 362.53 1257.64 360.272C1248.13 358.493 1238.63 356.721 1229.13 354.956C1227.28 354.606 1225.39 354.486 1223.55 354.127C1220.42 353.497 1219.85 352.438 1221.39 349.68C1223.28 346.263 1225.38 342.936 1227.44 339.688C1234.58 328.587 1241.64 317.436 1246.8 305.226C1247.64 303.227 1248.35 301.229 1249.1 299.231C1249.32 298.441 1249.81 297.753 1250.48 297.287C1251.16 296.822 1251.97 296.608 1252.79 296.683C1264.05 297.332 1275.31 297.982 1286.57 298.681C1288.3 298.933 1290 299.317 1291.66 299.83C1299.16 301.209 1306.62 302.538 1314.15 303.977C1317.99 304.598 1321.77 305.466 1325.49 306.575C1330.15 308.124 1333.05 314.279 1331.25 318.805C1328.48 325.799 1325.42 332.664 1322.27 339.508C1321.22 341.541 1319.99 343.472 1318.58 345.274C1315.59 349.44 1312.67 353.587 1309.6 357.694C1308.09 359.742 1306.43 361.691 1304.79 363.639C1301.17 367.956 1296.3 369.095 1290.91 369.904C1285.1 370.743 1280.01 369.534 1274.75 367.106ZM1283.63 393.515C1282.71 399.76 1279.64 404.706 1275.75 409.552C1268.83 418.235 1259.9 423.911 1249.99 428.397C1244.73 430.765 1239.73 433.853 1234.31 435.701C1225.84 438.589 1217.22 439.159 1209.19 433.903C1206.66 433.024 1204.11 432.184 1201.6 431.255C1200.75 431.03 1200.02 430.495 1199.55 429.754C1199.08 429.014 1198.9 428.123 1199.06 427.258C1199.77 419.914 1200.26 412.55 1201.05 405.276C1202.57 393.132 1205.85 381.274 1210.78 370.074C1212.2 366.707 1212.54 366.357 1216.26 366.757C1223.32 367.509 1230.35 368.422 1237.37 369.494C1242.53 370.294 1247.62 371.493 1252.75 372.492C1256.61 373.571 1260.5 374.49 1264.3 375.759C1267.87 376.928 1271.28 378.577 1274.86 379.706C1280.1 381.205 1284.8 385.661 1283.65 393.515H1283.63ZM1328.62 291.217C1324.36 290.977 1320.02 291.887 1315.9 290.018C1315.13 289.774 1314.31 289.716 1313.51 289.848C1308.47 290.258 1303.76 288.629 1298.95 287.55C1297.24 287.25 1295.49 287.06 1293.82 286.621C1287.42 285.079 1280.87 284.225 1274.29 284.073C1269.21 283.853 1264.11 283.583 1259.03 283.243C1255.25 282.994 1254.72 282.144 1255.83 278.297C1259.63 264.717 1262.26 250.838 1263.71 236.811C1263.8 236.278 1263.85 235.741 1263.86 235.202C1263.72 228.527 1264.73 228.937 1269.9 228.667C1287.85 227.728 1305.8 226.459 1323.82 227.578C1335.3 228.407 1346.76 229.207 1358.27 230.076C1361.34 230.306 1363.26 231.924 1364.54 234.892C1365.41 236.779 1365.9 238.821 1365.98 240.901C1366.06 242.98 1365.73 245.055 1364.99 247.002C1362.4 254.187 1360.33 261.551 1356.39 268.225C1351.23 276.928 1344.77 284.263 1335.86 289.209C1333.69 290.574 1331.17 291.273 1328.62 291.217ZM1364.05 218.595C1356.42 218.275 1348.81 217.466 1341.19 216.837C1336.53 216.457 1331.88 216.017 1327.23 215.608C1314.76 214.329 1302.29 214.608 1289.81 215.408C1282.44 215.877 1275.08 216.217 1267.72 216.627C1265.47 216.757 1264.57 216.027 1264.23 213.719C1264.21 213.316 1264.21 212.913 1264.23 212.51C1263.23 191.137 1262.86 169.744 1263.13 148.341C1263.13 147.672 1263.13 146.992 1263.13 146.343C1263.13 144.155 1264.03 142.776 1266.32 142.436C1270.31 141.857 1274.29 141.107 1278.28 140.657C1288.01 139.578 1297.73 138.08 1307.49 137.76C1321.31 137.29 1335.15 137.76 1348.98 137.76C1358.39 137.76 1367.8 137.54 1377.19 137.76C1381.83 137.86 1386.17 139.279 1389.5 142.896C1392.49 146.213 1393.69 150.1 1392.31 154.446C1390.62 159.822 1388.79 165.158 1386.88 170.434C1385.14 175.382 1384.26 180.594 1384.28 185.841C1384.22 192.686 1383.62 199.49 1381.38 206.075C1378.69 213.799 1372.14 218.925 1364.06 218.595H1364.05ZM1211.43 84.4624C1211.85 83.3266 1212.53 82.3062 1213.41 81.4859C1214.3 80.6656 1215.37 80.0691 1216.53 79.7462C1222.8 77.7478 1229.09 75.7494 1235.2 73.2614C1243.31 70.024 1251.25 66.3369 1259.31 62.9297C1261.06 62.1902 1262.82 60.8213 1265.49 62.2602C1264.9 63.6491 1264.49 64.7682 1263.98 65.8173C1258.74 76.1491 1255.94 87.2102 1254.37 98.6011C1253.06 108.054 1251.83 117.526 1250.84 127.018C1250.21 133.173 1249.85 139.369 1249.77 145.554C1249.6 155.935 1249.56 166.317 1249.77 176.699C1249.96 186.381 1250.76 196.063 1250.91 205.745C1251.07 213.279 1250.74 220.823 1250.63 228.357C1250.63 229.027 1250.52 229.706 1250.54 230.356C1250.98 243.275 1248.62 255.905 1245.4 268.235C1241.62 282.664 1237.65 297.212 1230.44 310.382C1226.68 317.216 1222.65 323.921 1218.47 330.496C1210.78 342.374 1204.11 354.878 1198.52 367.876C1193.12 380.671 1189.92 394.289 1189.05 408.153C1188.75 412.56 1188.85 417.006 1188.89 421.433C1188.89 425.21 1187.89 426.129 1184.4 425.31C1181.26 424.57 1178.14 423.781 1174.99 423.112C1172.16 422.512 1170.42 421.173 1170.33 417.996C1170.16 412.21 1169.76 406.445 1169.51 400.659C1168.85 385.032 1172.64 370.254 1177.91 355.695C1181.63 345.404 1186.53 335.711 1191.44 325.949C1201.14 306.685 1209.72 286.92 1215.37 265.997C1220.23 247.474 1222.19 228.307 1221.17 209.183C1220.86 199.897 1219.36 190.689 1216.71 181.785C1214.55 174.79 1213.72 167.316 1212.6 160.012C1211.2 151.119 1210.05 142.186 1208.84 133.263C1208.58 131.259 1208.44 129.24 1208.43 127.218C1208.36 117.656 1208.37 108.084 1208.33 98.5112C1208.23 93.6151 1209.65 88.9988 1211.46 84.4624H1211.43ZM1161.46 106.685C1161.66 105.761 1162.06 104.894 1162.64 104.152C1163.23 103.411 1163.97 102.814 1164.82 102.408C1173.68 98.1715 1182.51 93.8849 1191.37 89.6283C1191.97 89.3445 1192.61 89.1203 1193.26 88.9588C1195.33 88.3993 1196.02 88.819 1196.25 90.8373C1196.31 91.6456 1196.31 92.4571 1196.25 93.2654C1195.9 99.4305 1195.55 105.606 1195.26 111.521C1195.64 119.185 1195.72 126.599 1196.43 133.953C1197.17 141.557 1198.37 149.121 1199.62 156.655C1201.08 165.528 1202.7 174.371 1204.47 183.183C1205.41 187.92 1207.02 192.516 1207.83 197.262C1208.58 201.764 1209.01 206.311 1209.13 210.871C1209.35 216.657 1209.44 222.482 1209.13 228.257C1208.74 235.082 1208.13 241.916 1207.14 248.671C1204.03 269.225 1196.54 288.359 1187.73 307.024C1183.42 316.157 1178.89 325.19 1174.5 334.283C1167.88 347.839 1163.08 362.217 1160.25 377.038C1158.54 385.623 1157.94 394.39 1158.46 403.128C1158.74 407.124 1159.27 411.121 1159.8 415.118C1160.28 418.775 1159.06 419.984 1155.39 419.424C1151.15 418.775 1146.91 418.165 1142.65 417.646C1140.46 417.386 1139.21 416.347 1138.95 414.129C1138.48 410.132 1137.86 406.135 1137.52 402.138C1136.99 397.331 1136.72 392.497 1136.73 387.66C1137.11 374.59 1138.86 361.811 1143.5 349.371C1149.06 334.462 1156.17 320.264 1162.27 305.616C1167.03 294.175 1171.82 282.754 1174.03 270.494C1175.36 263.12 1177.02 255.805 1177.2 248.191C1177.3 243.505 1177.93 238.859 1177.05 234.203C1176.73 232.494 1176.64 230.745 1176.3 229.037C1174.7 221.043 1173.19 212.96 1171.32 204.976C1170.17 199.98 1168.45 195.184 1167.12 190.258C1164.98 182.344 1163.06 174.371 1160.83 166.487C1159.11 159.989 1158.25 153.295 1158.25 146.573C1158.17 141.467 1157.76 136.381 1157.6 131.275C1157.34 122.842 1159.32 114.748 1161.49 106.685H1161.46ZM981.5 501.069C979.239 500.191 976.902 499.522 974.518 499.071C960.554 495.564 946.689 491.966 932.715 488.659C925.024 486.841 917.214 485.542 909.454 483.993C896.966 481.505 885.435 476.309 873.944 471.063C869.845 469.185 869.835 468.995 870.683 464.658C871.251 461.781 871.86 458.913 872.608 455.276C874.752 455.745 876.478 455.715 877.765 456.455C887.889 462.3 899.21 464.139 910.431 466.047C925.613 468.625 940.754 471.603 956.165 472.742C963.147 473.251 970.06 473.921 977.022 474.331C995.288 475.279 1013.29 479.095 1030.38 485.642C1034.06 487.246 1037.62 489.112 1041.04 491.227C1042.52 492.066 1042.54 493.655 1040.82 495.304C1037.43 498.551 1034.19 502.168 1030.24 504.566C1024.52 508.034 1018.27 510.562 1012.2 513.489C1010.08 514.488 1008.21 514.099 1006.14 513.03C998.028 508.883 989.799 504.926 981.5 501.069ZM992.662 517.336C992.373 519.185 990.667 519.335 989.221 519.504C978.448 520.979 967.804 523.278 957.382 526.379C950.916 528.295 944.838 531.34 939.428 535.372C934.041 539.239 934.171 540.717 928.136 534.672C922.767 529.346 916.547 524.955 909.733 521.683C895.769 514.928 881.804 508.293 867.9 501.599C861.187 498.371 861.197 498.351 863.341 491.217C864.199 488.379 865.027 485.542 865.895 482.714C866.053 481.904 866.495 481.177 867.14 480.665C867.786 480.152 868.593 479.886 869.416 479.916L872.408 481.095C879.49 484.003 886.472 487.22 893.684 489.748C903.19 493.096 913.155 494.744 923.029 496.743C932.236 498.571 941.353 500.859 950.509 502.958C958.359 504.746 966.289 506.265 974.02 508.463C979.545 510.032 984.822 512.46 990.168 514.648C991.365 515.098 992.951 515.588 992.682 517.336H992.662ZM1038.61 475.669C1029.09 471.093 1018.78 469.045 1008.74 466.097C1001.45 463.949 993.959 463.599 986.488 462.94C973.411 461.771 960.294 460.941 947.238 459.522C938.58 458.613 930.012 457.014 921.394 455.795C914.89 454.866 908.357 454.217 901.883 453.138C895.41 452.058 889.295 450.45 883.59 447.202C881.443 446.089 879.208 445.157 876.907 444.415C875.401 443.855 874.104 443.086 874.094 441.417C874.007 438.328 874.13 435.237 874.463 432.164C874.792 429.616 875.461 429.287 878.004 429.626C882.253 430.186 886.482 430.955 890.732 431.535C899.499 432.724 908.237 434.023 917.134 433.953C937.084 433.813 956.943 434.083 976.842 433.683C988.622 433.453 1000.39 432.274 1012.16 431.535C1017.15 431.225 1022.08 431.045 1027.02 430.665C1036.51 429.926 1045.98 429.027 1055.48 428.327C1058.64 428.098 1061.84 428.327 1065.76 428.327C1065.43 429.6 1064.98 430.839 1064.42 432.024C1058.95 440.698 1055.26 450.375 1053.56 460.492C1052.68 465.368 1052.33 470.334 1051.73 475.27C1051.69 475.806 1051.6 476.337 1051.47 476.859C1050.65 479.676 1049.48 480.326 1046.73 479.257C1043.99 478.188 1041.28 476.958 1038.62 475.669H1038.61ZM1045.18 287.71C1048.05 284.243 1051.89 282.494 1055.87 280.815C1066.37 276.389 1076.82 271.883 1087.35 267.446C1099.32 262.377 1111.32 257.337 1123.34 252.328C1123.97 252.113 1124.62 251.95 1125.27 251.839C1134.08 247.532 1143.35 244.27 1152.91 242.116C1155.4 241.587 1157.84 240.837 1160.32 240.218C1163.31 239.448 1164.76 240.318 1164.72 243.435C1164.78 248.401 1164.47 253.363 1163.8 258.283C1162.6 265.687 1161.03 273.052 1159.12 280.266C1157.81 285.172 1155.58 289.818 1153.84 294.624C1153 296.942 1151.03 297.322 1149.05 297.692C1144.84 298.471 1140.6 299.071 1136.4 299.9C1130.75 301.019 1125.13 302.278 1119.51 303.487C1114.24 305.016 1108.97 306.485 1103.71 308.094C1099.09 309.482 1094.53 311.091 1089.89 312.38C1079.32 315.378 1068.76 318.375 1058.12 321.083C1052.4 322.532 1045.23 318.395 1043.15 312.86C1042.22 310.352 1041.55 307.734 1040.81 305.156C1038.9 298.531 1040.92 292.876 1045.2 287.71H1045.18ZM1062.72 414.359C1061.25 414.501 1059.77 414.219 1058.46 413.544C1057.15 412.869 1056.05 411.83 1055.31 410.552C1052 405.556 1049.07 400.56 1047.93 394.564C1047.57 392.913 1047.61 391.198 1048.05 389.567C1048.5 387.936 1049.33 386.437 1050.48 385.202C1056.53 378.377 1063.21 372.432 1072.19 369.714C1073.82 369.139 1075.48 368.682 1077.18 368.345C1084.58 367.226 1092 366.237 1099.41 365.198C1107.13 364.398 1114.85 363.619 1122.56 362.77C1125.68 362.43 1127.14 363.839 1126.47 367.056C1125.33 372.588 1124.92 378.244 1125.24 383.883C1125.51 388.829 1126.09 393.765 1126.54 398.701C1126.9 402.698 1127.36 406.695 1127.6 410.691C1127.84 414.688 1126.96 415.388 1122.95 415.008C1116.7 414.409 1110.42 413.859 1104.16 413.289C1097.84 413.359 1091.52 413.349 1085.21 413.499C1077.73 413.739 1070.23 414.025 1062.72 414.359ZM1124.96 351.409C1119.91 351.709 1114.9 352.808 1109.86 353.517C1109.06 353.572 1108.26 353.572 1107.46 353.517C1099.26 353.707 1091.26 355.366 1083.21 356.725C1075.7 357.994 1068.15 359.083 1060.6 360.112C1055.55 360.791 1051.41 358.943 1048.77 353.827C1045.71 347.902 1047.07 342.606 1049.55 337.27C1050.08 336.166 1050.84 335.19 1051.78 334.41C1052.73 333.63 1053.83 333.065 1055.01 332.754C1058.48 331.755 1062 330.675 1065.48 329.866C1076.98 327.201 1088.33 323.946 1099.5 320.114C1103.93 318.615 1108.54 317.646 1113.07 316.427C1120.31 314.568 1127.53 312.63 1134.8 310.871C1137.39 310.252 1140.1 310.092 1142.78 309.682C1145.89 309.203 1146.96 310.202 1145.91 313.1C1144.7 316.524 1143.26 319.862 1141.6 323.092C1137.94 330.291 1134.89 337.784 1132.48 345.494C1131.21 349.281 1129.12 351.139 1124.96 351.409ZM1150.28 176.039C1152.77 185.232 1155.61 194.325 1158 203.537C1159.89 210.791 1161.31 218.165 1162.92 225.52C1163.01 225.883 1163.03 226.262 1162.98 226.633C1162.93 227.005 1162.8 227.362 1162.6 227.684C1162.41 228.006 1162.16 228.286 1161.85 228.508C1161.55 228.73 1161.21 228.889 1160.84 228.977C1159.35 229.536 1157.75 229.836 1156.2 230.246C1147.4 232.574 1138.42 234.243 1130.04 238.03C1120.66 242.026 1111.26 246.023 1101.88 250.02C1090.65 254.836 1079.43 259.669 1068.22 264.518L1044.91 274.57C1044.67 274.67 1044.41 274.9 1044.18 274.88C1039.33 274.351 1034.06 276.159 1029.95 271.783C1027.59 269.275 1024.02 268.096 1022.32 264.788C1021.06 262.34 1019.98 259.892 1020.25 257.114C1020.58 252.166 1021.18 247.239 1022.04 242.356C1023.19 236.97 1027.13 233.273 1031.37 230.086C1033.95 228.147 1036.82 226.629 1039.51 224.87C1047.27 219.807 1055.03 214.732 1062.77 209.642C1063.33 209.277 1063.91 208.944 1064.5 208.643C1077.07 202.188 1089.56 195.584 1102.24 189.398C1106.65 187.25 1111.57 186.141 1116.21 184.562C1121.97 182.394 1127.75 180.286 1133.48 178.048C1137.22 176.579 1140.93 175.05 1144.59 173.351C1148.24 171.653 1149.25 172.222 1150.28 176.019V176.039ZM994.797 197.532C995.288 197.073 995.807 196.646 996.353 196.253C1004.68 191.097 1012.83 185.622 1021.42 180.925C1030.28 176.141 1038.78 170.714 1046.84 164.688C1054.64 158.744 1062.9 153.45 1071.56 148.861C1083.36 142.716 1095.22 136.681 1107.07 130.645C1108.17 130.176 1109.31 129.788 1110.47 129.486C1112.6 128.367 1114.68 127.188 1116.84 126.139C1124.93 122.202 1133.01 118.275 1141.15 114.428C1142.71 113.855 1144.31 113.407 1145.93 113.09C1146.12 114.329 1146.19 115.584 1146.14 116.837C1144.5 126.479 1145.44 136.181 1145.45 145.863C1145.45 149.341 1145.8 152.858 1146.14 156.295C1146.35 157.573 1146.12 158.886 1145.48 160.01C1144.83 161.134 1143.82 162 1142.61 162.46C1137.48 164.788 1132.32 167.066 1127.11 169.205C1124.12 170.424 1121.05 171.323 1118 172.372C1117.67 172.602 1117.32 172.794 1116.95 172.942C1104.98 176.299 1094.09 182.214 1083.25 188.169C1076.07 192.166 1068.63 195.584 1061.49 199.6C1056.11 202.598 1051.03 206.155 1045.83 209.462C1036.99 215.078 1028.3 220.943 1019.25 226.189C1014.93 228.697 1009.68 229.017 1004.76 228.008C1003.11 227.637 1001.55 226.909 1000.21 225.873C998.87 224.837 997.771 223.52 996.991 222.012C994.098 216.397 991.944 210.462 991.944 203.957C991.882 202.737 992.108 201.519 992.604 200.403C993.099 199.287 993.851 198.303 994.797 197.532ZM948.096 230.626C952.544 227.158 957.073 223.771 961.611 220.424C964.095 218.585 966.598 216.807 969.232 215.138C972.224 213.249 973.95 213.449 976.393 215.887C977.321 216.86 978.116 217.952 978.757 219.135C981.082 223.221 983.206 227.428 985.63 231.465C988.543 236.291 991.425 241.167 994.777 245.693C998.767 251.069 1001.23 257.184 1003.86 263.189C1011.72 281.175 1019.82 299.071 1025.03 318.036C1027.27 326.47 1028.85 335.066 1029.77 343.745C1030.77 352.278 1030.59 360.931 1031 371.643L1029.13 410.691C1029.13 411.231 1028.99 411.761 1028.92 412.29C1028.35 416.357 1027.92 416.936 1024.01 417.286C1017.45 417.856 1010.88 418.285 1004.3 418.555C1001.05 418.705 1000.46 417.926 1001.03 414.698C1002.64 405.406 1002.87 396.003 1003.51 386.611C1005.15 363.14 999.525 340.957 993.021 318.855C990.861 311.65 988.294 304.574 985.331 297.662C982.787 291.607 979.346 285.921 976.663 279.936C971.945 269.554 965.172 260.552 958.31 251.569C954.24 246.233 950.649 240.528 946.889 234.952C945.662 233.084 945.811 232.354 948.096 230.586V230.626ZM922.311 250.779C926.072 247.782 929.792 244.634 933.612 241.667C936.605 239.319 937.911 239.598 940.186 242.766C946.38 251.399 952.784 259.882 958.699 268.745C962.353 274.385 965.684 280.23 968.673 286.251C972.598 293.606 976.079 301.19 979.097 308.963C982.986 318.999 986.179 329.292 988.652 339.768C990.557 348.421 992.343 357.134 993.53 365.917C994.228 371.063 993.659 376.399 993.659 381.645C994.547 392.986 993.261 404.227 991.884 415.448C991.465 418.855 990.577 419.874 987.415 420.044C981.65 420.334 975.865 420.534 970.09 420.564C966.479 420.564 965.99 419.984 966.1 416.167C966.289 410.172 966.628 404.077 966.868 398.032C967.263 389.121 966.482 380.198 964.544 371.493C962.18 361.001 960.554 350.32 957.811 339.938C955.008 328.71 951.489 317.672 947.278 306.895C942.599 295.454 936.764 284.462 930.959 273.531C928.605 269.075 924.974 265.278 921.982 261.181C921.894 261.08 921.801 260.983 921.703 260.891C917.194 256.085 917.274 254.806 922.311 250.739V250.779ZM850.025 313.839C857.786 306.994 865.466 300.04 873.216 293.175C879.75 287.39 886.333 281.665 893.165 275.63C895.539 279.626 897.993 283.773 900.367 287.92C903.359 293.165 906.282 298.481 909.344 303.717C913.494 310.891 915.708 318.825 918.431 326.559C923.937 342.236 927.039 358.533 930.201 374.74C931.917 383.553 933.413 392.496 933.114 401.589C932.954 406.585 933.004 411.521 932.894 416.487C932.894 417.806 932.605 419.115 932.425 420.564C924.336 420.564 916.795 421.013 909.324 420.444C899.021 419.664 888.787 418.106 878.523 416.867C875.82 416.547 875.072 415.867 874.892 413.01C874.772 411.261 874.832 409.502 874.892 407.754C875.216 384.633 870.291 361.742 860.489 340.807C857.227 333.743 852.918 327.158 848.948 320.434C846.843 316.837 846.784 316.697 850.025 313.839ZM856.309 583.223C857.676 587.4 857.416 588.05 853.935 590.697C852.549 591.697 851.352 593.046 849.945 594.115C840.734 601.354 829.753 605.985 818.146 607.524C809.354 609.397 800.227 608.942 791.664 606.205C786.617 604.586 781.39 603.497 776.243 602.208C770.767 602.068 765.271 601.589 759.815 601.859C752.145 602.228 744.853 604.776 737.651 607.184C735.766 607.814 733.801 608.184 731.876 608.723C729.482 609.443 727.108 610.292 724.675 610.831C717.932 612.33 711.149 611.911 704.396 610.831C700.327 610.182 696.267 609.393 692.237 608.543C690.846 608.15 689.486 607.656 688.167 607.064C686.392 606.495 684.457 606.205 682.871 605.296C676.886 601.859 670.094 599.61 665.246 594.225C663.75 592.556 661.665 591.427 659.909 589.968C658.536 588.899 657.257 587.712 656.089 586.421C652.279 581.954 652.319 581.425 655.092 576.269C656.089 574.371 656.668 572.272 657.575 570.274C659.969 565.178 662.293 560.042 664.917 555.056C666.981 551.149 669.355 547.382 671.759 543.675C674.013 540.188 675.939 539.958 679.52 541.926C684.567 544.694 689.873 547.012 694.781 549.99C698.88 552.478 703.399 553.497 707.748 554.986C709.87 555.263 711.977 555.646 714.062 556.135C720.791 557.882 727.684 558.923 734.629 559.243C735.16 559.319 735.684 559.439 736.195 559.602L737.362 559.462L744.823 559.892C754.219 560.652 763.585 560.102 772.942 559.313C780.782 558.913 788.432 557.314 796.093 555.725C797.519 555.436 798.965 555.256 800.402 555.026C808.81 553.028 816.58 549.461 824.131 545.344C826.485 544.055 828.769 542.636 831.173 541.437C834.166 539.928 834.804 540.438 836.36 543.375C838.764 547.992 841.517 552.438 844.011 557.014C848.639 565.498 853.307 573.991 856.309 583.223ZM863.8 606.775C866.793 616.387 869.785 625.979 872.568 635.642C873.414 639.149 874.08 642.697 874.563 646.273C874.912 648.271 873.894 649.68 872.568 650.839C870.926 652.222 869.215 653.519 867.441 654.726C863.122 657.724 858.793 660.632 854.374 663.439C848.096 667.363 841.071 669.935 833.747 670.993C829.966 671.733 826.216 672.802 822.396 673.152C811.793 674.091 801.599 672.152 791.624 668.515C787.135 666.877 782.417 665.867 777.809 664.578C768.104 662.98 758.359 662.28 748.584 663.649C743.826 664.309 739.118 665.378 734.38 666.267C726.4 668.695 718.42 671.423 710.331 673.491C701.897 675.59 693.179 676.302 684.517 675.6C683.333 675.429 682.164 675.175 681.016 674.84C675.937 675.185 670.842 674.471 666.054 672.742C664.918 672.35 663.763 672.016 662.593 671.743C654.422 670.036 646.899 666.053 640.888 660.252C639.279 658.828 637.573 657.519 635.781 656.335C634.984 655.856 634.37 655.123 634.038 654.254C633.705 653.385 633.673 652.429 633.946 651.539C637.516 634.502 640.868 617.416 645.596 600.65C645.823 599.875 646.127 599.125 646.504 598.411C647.651 596.203 648.578 595.853 650.613 597.202C652.31 598.279 653.877 599.55 655.281 600.989C659.023 604.851 663.433 607.999 668.298 610.282C674.183 613.2 680.038 616.177 685.903 619.125C696.117 621.323 706.311 623.801 716.825 623.172C720.814 622.932 724.804 622.312 728.794 621.873C729.851 621.753 730.919 621.663 731.976 621.563C739.906 619.295 747.476 615.737 755.755 614.718C762.937 613.829 770.109 613.719 777.151 615.777C779.507 616.018 781.841 616.439 784.133 617.036C792.542 619.854 801.09 621.962 809.997 621.423C814.107 621.173 818.176 620.424 822.266 619.944C828.74 617.806 835.233 615.757 841.677 613.489C847.124 611.531 852.151 608.554 856.489 604.716C860.918 600.899 862.144 601.269 863.8 606.775ZM803.853 230.795C805.987 230.626 808.152 230.795 810.296 230.795C814.286 230.745 818.396 230.216 822.057 232.554C827.742 236.191 830.315 241.757 830.954 248.102C831.214 251.99 830.949 255.895 830.166 259.712C829.368 264.329 825.857 267.046 822.047 269.235C820.391 270.234 819.234 269.604 818.206 267.626C814.775 261.071 811.414 254.476 807.922 247.962C805.758 243.965 803.384 239.968 801.14 236.021C799.155 232.504 799.823 231.125 803.853 230.795ZM710.331 249.66C716.834 238.769 724.146 228.237 735.268 221.603C741.731 217.746 748.534 213.929 756.523 213.659C759.903 213.549 763.215 214.631 765.88 216.717C778.847 226.259 788.971 238.329 796.801 252.368C799.693 257.524 803.205 262.36 805.559 267.796C808.391 274.291 810.306 281.195 812.541 287.94C813.066 289.317 813.457 290.743 813.708 292.196C813.952 293.319 813.823 294.491 813.339 295.534C812.481 296.833 811.174 295.913 810.087 295.414C803.743 292.506 797.409 289.548 791.026 286.711C788.841 285.711 786.527 285.082 784.263 284.283C783.897 279.024 782.744 273.85 780.841 268.935C778.686 263.026 776.14 257.268 773.221 251.699C770.558 246.493 767.426 241.507 764.244 236.561C762.866 234.547 760.819 233.088 758.469 232.444C754.339 231.095 750.569 232.104 746.758 233.553C744.763 234.333 742.988 235.192 741.881 237.36C736.155 248.471 731.018 259.842 727.587 271.883C726.44 275.879 724.704 279.806 724.525 284.043L696.337 293.096C694.262 290.638 695.06 288.1 695.808 285.971C700.157 273.651 703.588 260.941 710.331 249.66ZM763.825 281.525L744.195 281.585C744.182 278.481 744.375 275.38 744.773 272.302C745.96 265.038 747.536 257.844 748.973 250.62C749.352 248.701 750.11 246.972 752.194 246.393C754.509 245.743 755.965 247.082 757.331 248.711C759.292 251.121 760.509 254.052 760.832 257.144C761.83 264.578 762.618 272.022 763.516 279.466C763.595 280.156 763.705 280.845 763.825 281.525ZM675.939 255.086C676.328 252.538 676.597 249.71 677.215 246.962C679.081 238.709 687.559 234.852 693.484 234.852C695.499 234.89 697.504 235.134 699.469 235.582C702.282 236.171 702.631 237.24 701.244 239.888C698.741 244.644 696.167 249.381 693.853 254.227C691.778 258.593 689.863 263 689.714 268.046C689.654 270.933 688.128 271.733 685.724 270.154C680.337 266.707 676.158 262.33 675.939 255.086ZM689.753 352.948C689.753 352.948 694.152 349.58 693.983 344.165C693.983 343.975 693.983 343.795 693.983 343.605C693.978 343.572 693.978 343.538 693.983 343.505C693.983 343.295 693.933 343.086 693.893 342.866V342.816C693.491 340.748 692.609 338.804 691.319 337.14C684.407 327.748 680.607 325.58 677.535 328.977C674.462 332.374 676.607 348.461 676.607 348.461C676.607 348.461 669.625 338.15 671.45 327.418C672.168 323.112 673.545 319.914 675.779 317.896C676.317 317.416 676.905 316.997 677.535 316.647L677.674 316.577C678.065 316.365 678.472 316.184 678.891 316.037H678.991C682.203 314.918 686.532 315.248 692.267 317.196C705.414 321.663 716.276 336.421 721.193 342.676C725.652 348.341 726.5 349.99 726.63 350.25L724.525 335.102C726.086 334.221 727.766 333.572 729.512 333.173L730.36 332.944C731.248 332.704 732.265 332.454 733.412 332.214L734.609 331.964C736.684 331.555 739.148 331.135 742.06 330.755L743.876 330.526C748.215 330.016 753.481 329.526 759.835 329.257H759.975L762.458 329.167H763.376H765.012H767.495H768.553H769.899H770.947L772.233 329.227L773.231 329.287L774.458 329.367L775.455 329.446L776.632 329.556L777.63 329.646L778.777 329.766L779.684 329.876L780.802 330.016L781.659 330.136L782.747 330.296L783.555 330.426L784.622 330.606L785.36 330.735L786.417 330.935L787.096 331.065L788.093 331.275L788.711 331.405L789.709 331.645L790.238 331.765L791.235 332.024L791.674 332.134L792.751 332.424L793.08 332.514L794.197 332.824L794.407 332.884L795.604 333.253H795.654C798.659 334.139 801.575 335.307 804.362 336.741L804.441 336.791L798.457 328.267L798.556 328.128L798.836 327.728C799.155 327.298 799.664 326.639 800.352 325.819C800.631 325.49 800.94 325.14 801.269 324.77C801.778 324.221 802.347 323.621 802.975 323.002C804.144 321.863 805.376 320.792 806.666 319.794C807.842 318.889 809.071 318.055 810.346 317.296C813.581 315.339 817.143 313.985 820.86 313.299L822.106 313.09L822.715 313L823.293 312.91L823.952 312.83L824.411 312.77L825.079 312.7H825.488H826.126H826.505H827.114H827.473H829.248H829.777H830.066L830.565 312.75H830.834L831.303 312.81H831.552L832.001 312.89H832.221L832.65 312.99L832.829 313.04L833.258 313.159H833.338C833.797 313.307 834.244 313.491 834.674 313.709L834.824 313.789L835.103 313.949L835.283 314.059L835.532 314.229L835.702 314.349L835.931 314.528L836.091 314.668L836.3 314.848L836.45 314.998L836.629 315.198C836.681 315.246 836.728 315.3 836.769 315.358L836.939 315.568L837.058 315.727C837.118 315.797 837.168 315.877 837.228 315.957C837.288 316.037 837.298 316.057 837.328 316.117L837.477 316.357L837.567 316.517C837.567 316.607 837.657 316.697 837.707 316.787C837.726 316.835 837.749 316.882 837.776 316.926L837.906 317.226C837.904 317.263 837.904 317.3 837.906 317.336C837.906 317.456 837.996 317.566 838.036 317.686C838.368 318.657 838.592 319.663 838.704 320.683C839.452 326.679 836.131 334.672 836.131 334.672C836.131 334.672 837.886 323.012 830.994 323.801C824.101 324.59 818.695 337.35 818.695 337.35C818.695 337.35 833.866 355.146 838.644 367.416C843.422 379.686 842.225 384.402 842.225 384.402C842.225 384.402 836.739 395.304 840.4 404.387C844.06 413.469 840.4 424.291 837.407 428.607C834.415 432.924 831.642 433.503 831.642 433.503L818.117 430.915C818.117 430.915 823.842 434.812 828.979 445.674C832.55 453.217 830.405 462.66 826.455 468.056C826.186 476.749 823.613 486.111 818.406 491.847C819.473 486.521 819.054 479.247 817.678 472.652C811.114 472.472 803.284 468.655 803.284 468.655C803.504 466.119 804.265 463.66 805.514 461.443C806.763 459.227 808.472 457.304 810.526 455.805C817.668 450.37 815.832 441.577 819.433 438.719C823.034 435.861 815.453 441.337 802.606 443.335C794.637 444.473 786.51 443.594 778.966 440.777C779.42 443.023 780.293 445.162 781.54 447.082C782.734 448.662 784.2 450.015 785.869 451.079L786.088 451.229C793.23 455.386 803.294 468.795 796.402 468.945C796.402 468.945 790.517 468.545 780.981 472.392L780.512 472.562C777.191 473.911 772.453 476.239 767.775 477.378C766.628 477.683 765.456 477.883 764.274 477.978H764.124C759.715 478.327 755.695 476.978 753.401 472.092C753.401 472.092 757.551 468.725 765.58 466.996C773.61 465.268 782.158 464.409 782.368 464.389C781.939 464.339 768.014 462.82 761.81 463.559C758.496 463.853 755.254 464.694 752.214 466.047C752.214 466.047 750.688 462.5 752.633 460.602C754.578 458.703 762.398 456.974 768.024 456.705C771.486 456.545 774.954 456.605 778.408 456.885C778.278 456.825 768.922 453.028 761.75 452.888C759.885 452.888 758.289 452.888 756.932 453.008C754.993 453.082 753.067 453.364 751.187 453.847C751.187 453.847 752.354 449.94 755.237 448.451C758.119 446.962 760.344 446.623 764.214 447.592L764.732 447.742C765.73 448.002 766.797 448.331 767.835 448.671L768.423 448.851L768.662 448.951C770.089 449.43 771.396 449.95 772.313 450.27C772.752 450.43 773.181 450.59 773.57 450.749C773.071 450.35 765.979 444.754 762.239 444.085C760.074 443.659 757.871 443.461 755.666 443.495L759.197 439.608L758.608 440.198L759.905 438.769C759.376 438.769 752.923 439.169 746.998 446.393C740.803 453.927 742.898 465.378 742.898 465.378C742 464.544 741.036 463.786 740.015 463.11C735.161 459.849 730.066 456.963 724.774 454.476C710.451 447.482 706.94 440.178 705.374 431.195C703.808 422.212 705.374 416.557 705.374 416.497C696.885 423.588 691.152 433.441 689.175 444.335C688.995 445.494 688.826 446.633 688.676 447.752C684.208 489.029 730.081 539.938 781.25 544.105C742.629 544.954 708.935 537.11 685.016 515.997C684.666 515.697 684.327 515.398 684.018 515.108L683.789 514.888C676.302 508.009 669.958 499.978 664.997 491.097C659.54 481.629 655.507 471.408 653.027 460.761C644.269 425.35 652.917 384.972 689.753 352.948ZM609.518 247.692L609.797 247.982L609.657 248.241L609.238 247.962L609.518 247.692ZM605.787 276.469C609.069 279.466 611.772 281.994 614.635 284.413C622.405 291.037 630.135 297.702 638.035 304.147C644.269 309.223 649.117 315.458 653.695 321.952C655.461 324.46 655.87 327.118 653.835 329.786C641.746 345.713 635.98 364.269 631.631 383.433C629.506 392.336 628.501 401.469 628.639 410.622C628.749 414.758 628.36 415.338 624.3 416.017C617.428 417.176 610.505 418.016 603.593 418.945C592.277 420.498 580.86 421.189 569.44 421.013C567.974 421.013 566.517 420.883 564.403 420.793C564.203 417.136 563.944 413.939 563.874 410.731C563.575 396.443 564.872 382.244 566.398 368.076C566.687 365.448 573.2 340.658 575.125 332.694C580.113 312.03 590.426 294.345 604.411 278.607C604.923 277.93 605.383 277.215 605.787 276.469ZM352.014 310.242C353.33 308.114 355.475 309.812 357.2 309.992C367.105 310.991 376.631 313.769 386.127 316.557C392.012 318.365 397.867 320.284 403.792 321.952C413.846 324.79 423.95 327.468 434.035 330.196C434.299 330.241 434.565 330.271 434.833 330.286C440.269 331.175 443.63 333.883 444.807 339.698C445.715 344.325 446.443 348.561 443.64 352.798C441.206 356.485 437.855 358.503 433.566 358.473C429.284 358.395 425.011 358.061 420.768 357.474C410.794 356.245 400.909 354.846 390.974 353.477C385.678 352.858 380.391 351.898 375.075 351.709C369.23 351.499 366.297 348.811 364.811 343.235C362.247 333.583 357.23 324.9 353.25 315.807C352.432 314.079 350.837 312.17 352.014 310.242ZM348.542 297.732C347.485 297.561 346.49 297.115 345.658 296.438C344.827 295.761 344.188 294.877 343.804 293.875C339.039 282.925 335.884 271.34 334.438 259.482C333.88 255.106 333.441 250.709 332.992 246.313C332.92 245.371 332.973 244.423 333.152 243.495C333.75 240.008 334.468 239.598 338.009 240.358C351.921 243.269 365.412 247.918 378.167 254.197C385.488 257.194 392.82 260.192 400.111 263.189C414.076 269.045 428.04 275 442.064 280.765C444.612 281.645 446.756 283.42 448.099 285.761C449.505 288.319 451.42 290.658 452.528 293.335C455.789 301.269 454.403 308.323 447.899 314.179C447.496 314.533 447.116 314.914 446.762 315.318C442.902 319.914 437.785 320.703 432.469 319.315C423.651 316.996 414.953 314.259 406.206 311.691L378.875 303.697L348.542 297.732ZM370.277 410.642C371.993 398.152 373.11 385.602 372.412 372.972C372.282 370.574 371.703 368.195 371.634 365.797C371.564 363.209 372.581 362.54 375.175 362.8C382.057 363.589 388.959 364.339 395.852 365.098L410.515 367.096C415.412 367.756 420.31 368.455 425.207 369.025C431.092 369.724 436.927 370.554 441.625 374.63C443.002 375.663 444.13 376.991 444.927 378.517C449.266 389.259 448.787 399.73 442.583 409.702C441.708 411.279 440.392 412.565 438.797 413.403C437.202 414.24 435.398 414.593 433.606 414.418C419.402 413.859 405.188 413.709 390.984 413.419C385.538 413.979 380.095 414.538 374.656 415.098C370.656 415.498 369.748 414.458 370.277 410.612V410.642ZM436.309 428.158C445.286 428.787 454.263 429.516 463.18 430.216C467.859 430.586 472.537 431.035 477.215 431.325C483.519 431.718 489.836 432.051 496.166 432.324C510.929 432.904 525.681 433.663 540.444 433.903C555.904 434.143 571.365 434.143 586.846 433.703C594.716 433.473 602.575 432.184 610.396 431.105C615.034 430.476 619.602 429.307 624.2 428.417C627.412 427.798 628.739 428.757 629.188 431.935C629.188 432.194 629.188 432.474 629.188 432.744C629.796 439.738 629.796 439.688 623.632 442.736C621.457 443.805 619.253 444.824 617.158 446.033C607.263 451.769 596.262 453.477 585.24 455.026C576.262 456.275 567.216 457.624 558.188 458.793C552.333 459.542 546.458 460.082 540.583 460.622C529.103 461.621 517.642 462.89 506.131 463.619C490.91 464.618 476.736 469.514 462.532 474.401C458.861 475.66 455.41 477.568 451.839 479.137C448.707 480.516 447.46 480.006 446.613 476.589C445.902 473.862 445.438 471.076 445.226 468.265C444.476 455.037 440.265 442.239 433.017 431.155C432.639 430.42 432.306 429.663 432.02 428.887C433.422 428.497 434.858 428.243 436.309 428.128V428.158ZM458.562 490.418C460.846 489.309 462.841 487.54 465.185 486.661C477.524 482.034 489.972 477.668 503.089 476.089C510.53 475.18 518.051 474.84 525.532 474.221C542.099 472.862 558.647 471.403 574.976 468.026C585.21 465.917 595.494 464.029 605.797 462.21C611.094 461.291 615.423 458.143 620.36 456.425C623.013 455.506 625.677 454.586 628.34 453.637C630.335 452.938 631.532 453.767 632.05 455.636C632.669 457.834 633.048 460.082 633.547 462.25C632.838 466.037 630.345 468.245 627.273 469.694C621.926 472.212 616.44 474.44 611.034 476.819C600.76 481.335 589.997 484.033 578.976 485.941C570.124 487.512 561.359 489.533 552.712 491.996C542.738 494.784 532.644 496.893 522.589 499.281C514.41 501.219 506.919 504.876 499.508 508.693C496.516 510.232 493.673 512.02 490.8 513.759C490.238 514.123 489.593 514.339 488.926 514.388C488.258 514.437 487.589 514.317 486.98 514.039C476.616 509.812 466.342 505.456 458.492 497.052C458.133 496.653 457.714 496.303 457.365 495.893C455.051 493.006 455.36 491.927 458.562 490.388V490.418ZM510.56 513.239C519.118 509.123 528.384 507.364 537.491 505.156C547.266 502.778 557.041 500.39 566.866 498.241C574.587 496.553 582.407 495.294 590.157 493.725C601.688 491.407 612.48 486.93 623.183 482.224C626.385 480.815 629.597 479.446 632.848 478.167C636.349 476.799 637.387 477.278 638.584 480.735C639.581 483.663 640.359 486.671 641.486 489.548C642.484 491.956 641.855 493.655 639.96 495.224C636.556 498.053 632.785 500.406 628.749 502.218C617.876 507.214 607.154 512.5 596.421 517.786C591.278 520.124 586.281 522.773 581.459 525.719C576.607 529.099 571.945 532.745 567.495 536.641C564.792 538.889 564.123 539.139 561.151 537.25C557.63 535.022 554.278 532.524 550.678 530.436C544.314 526.729 537.112 525.36 530.07 523.691C523.028 522.022 516.106 520.963 509.173 519.534C507.582 519.07 506.025 518.492 504.515 517.806C506.221 514.708 508.555 514.179 510.56 513.209V513.239ZM558.578 241.757C560.263 239.658 561.57 239.309 563.714 240.947C568.702 244.804 573.579 248.841 578.497 252.818C579.16 253.305 579.611 254.028 579.758 254.839C579.904 255.649 579.735 256.485 579.285 257.174C578.745 258.263 578.027 259.252 577.16 260.102C571.175 265.737 567.265 272.832 563.635 280.086C559.346 288.629 554.947 297.142 551.216 305.925C548.383 312.59 546.538 319.674 544.234 326.549C538.15 344.474 535.426 363.15 531.806 381.625C531.43 383.751 531.283 385.912 531.367 388.07C531.556 397.062 531.846 406.055 532.095 415.118C532.095 415.787 532.165 416.467 532.095 417.116C531.955 419.814 531.417 420.364 528.724 420.584C528.454 420.584 528.185 420.584 527.916 420.584H525.093C525.093 420.404 525.093 420.224 525.093 420.044C520.395 420.044 515.697 420.144 510.999 420.044C507.587 419.944 506.64 419.175 506.271 415.837C505.423 408.084 504.645 400.32 504.126 392.546C503.827 387.98 504.226 383.373 504.046 378.797C503.488 364.758 506.43 351.249 509.752 337.75C513.014 324.5 517.103 311.471 522.938 299.221C528.863 286.781 534.289 273.941 543.436 263.199C548.214 257.594 552.014 251.149 556.243 245.074C556.992 243.955 557.71 242.816 558.578 241.757ZM501.722 247.982C507.797 240.358 512.196 231.725 516.894 223.261C518.001 221.263 519.048 219.215 520.345 217.336C522.978 213.509 525.811 212.9 529.512 215.548C536.284 220.394 542.977 225.36 549.63 230.366C552.453 232.494 552.403 232.994 550.318 235.911C543.556 245.414 536.633 254.826 530.05 264.478C526.985 269.216 524.239 274.153 521.831 279.257C517.522 287.89 512.954 296.373 509.572 305.516C505.352 316.702 501.945 328.179 499.378 339.858C497.433 349.041 496.027 358.343 494.541 367.616C494.266 370.027 494.186 372.456 494.301 374.88C494.351 388.199 494.57 401.519 496.924 414.688C497.503 417.956 496.924 418.685 493.723 418.485C487.149 418.165 480.566 417.766 474.013 417.186C470.083 416.847 469.644 416.457 469.325 412.57C468.613 403.864 468.045 395.144 467.619 386.411C467.39 381.835 467.619 377.248 467.619 372.662C467.619 368.895 467.689 365.118 467.619 361.351C467.092 341.256 470.673 321.265 478.142 302.608C484.696 286.281 491.628 270.114 498.471 253.897C499.286 251.789 500.38 249.799 501.722 247.982ZM353.52 112.82C357.121 114.638 360.781 116.577 364.492 118.345C370.477 121.153 376.461 123.801 382.396 126.609C384.035 127.48 385.626 128.437 387.164 129.476C388.569 129.875 389.946 130.369 391.284 130.955C404.34 137.6 417.417 144.205 430.394 150.999C440.059 156.055 448.548 162.92 457.485 169.095C462.213 172.372 467.18 175.33 472.118 178.287C477.414 181.455 482.81 184.472 488.177 187.52C491.032 189.318 493.373 191.828 494.969 194.804C495.476 195.737 495.814 196.751 495.967 197.802C496.456 200.43 496.685 203.118 497.264 205.715C497.739 207.683 497.756 209.734 497.314 211.709C496.871 213.685 495.98 215.531 494.71 217.106C494.071 218.132 493.15 218.951 492.057 219.464C488.237 220.594 484.756 223.012 480.536 222.622C480.27 222.561 479.994 222.561 479.728 222.622C474.741 224.62 471.001 221.733 467.2 219.225C460.826 214.998 454.542 210.622 448.089 206.535C442.762 203.158 437.306 199.97 431.79 196.932C423.432 192.336 414.963 187.94 406.545 183.463C398.969 179.404 391.073 175.979 382.935 173.221C373.408 170.439 364.159 166.78 355.305 162.29C354.256 161.85 353.378 161.08 352.806 160.095C352.234 159.111 351.997 157.966 352.133 156.835C352.502 147.842 352.881 138.849 352.921 129.856C352.844 125.441 352.458 121.037 351.764 116.677C351.565 115.008 351.764 113.879 353.52 112.82ZM347.535 176.459C347.715 175.809 347.904 175.16 348.143 174.53C348.931 172.532 349.999 171.833 351.854 172.752C362.577 178.098 374.167 181.115 385.269 185.422C393.049 187.34 400.041 191.097 407.063 194.784C409.916 196.283 412.769 197.782 415.602 199.331C424.579 204.237 433.646 208.913 442.413 214.139C450.712 219.085 458.682 224.59 466.751 229.906C467.79 230.499 468.627 231.39 469.155 232.464C471.15 238.269 473.793 244.045 473.873 250.24C473.933 254.856 473.454 259.722 469.604 263.229C469.176 263.558 468.802 263.953 468.497 264.398C465.505 269.654 460.637 271.863 454.902 272.552C452.228 272.872 449.645 272.982 447.022 271.783C437.865 267.586 428.658 263.496 419.402 259.512C413.238 256.855 406.964 254.466 400.779 251.859C392.361 248.311 383.992 244.674 375.603 241.077C367.903 238.339 360.243 235.472 352.472 232.924C348.034 231.465 343.396 230.596 338.867 229.367C335.216 228.367 334.927 227.568 335.396 223.971C336.713 214.069 339.745 204.626 342.568 195.104C344.423 188.959 345.919 182.684 347.565 176.459H347.535ZM297.363 162.98C298.36 157.584 299.358 152.158 300.086 146.713C300.954 140.068 301.891 133.393 302.081 126.729C302.43 116.906 302.2 107.054 302.141 97.2122C302.032 95.609 301.826 94.014 301.522 92.4361C301.113 89.3885 302.709 87.9796 305.462 89.2486C314.609 93.4752 323.706 97.8217 332.793 102.168C335.156 103.297 336.204 105.376 336.862 107.864C339.456 116.961 340.742 126.381 340.682 135.841C339.845 144.924 339.605 154.107 337.989 163.05C336.294 172.402 333.291 181.525 330.847 190.737C328.683 198.911 326.229 207.014 324.364 215.258C321.711 226.928 319.536 238.709 320.743 250.789C321.132 254.794 321.741 258.773 322.569 262.71C324.254 270.584 325.92 278.477 328.114 286.221C329.699 291.22 331.615 296.107 333.85 300.849C339.116 312.93 344.822 324.83 349.809 337.04C354.088 347.602 358.417 358.243 360.033 369.664C361.459 379.11 361.61 388.705 360.482 398.191C360.193 400.46 360.372 402.778 360.213 405.056C360.003 407.994 359.764 410.941 359.355 413.859C358.986 416.467 358.028 417.286 355.475 417.666C350.837 418.345 346.208 419.035 341.57 419.664C339.386 419.984 338.478 419.414 338.578 417.176C338.648 413.559 339.206 409.952 339.296 406.335C339.456 400.41 339.765 394.454 339.296 388.559C338.583 379.992 337.009 371.52 334.598 363.269C330.758 349.59 325.062 336.711 318.549 324.131C309.631 306.905 301.791 289.159 295.996 270.644C293.058 261.286 291.034 251.666 289.952 241.917C288.555 229.277 289.194 216.627 289.443 203.947C289.682 198.584 290.579 193.272 292.116 188.13C294.39 179.916 295.767 171.403 297.393 162.98H297.363ZM233.066 61.5608C234.419 61.6725 235.756 61.9237 237.056 62.3102C243.041 64.7682 248.876 67.516 254.881 69.8741C263.26 73.1715 271.678 76.3689 280.196 79.2666C281.811 79.7105 283.292 80.545 284.51 81.6966C285.727 82.8483 286.644 84.2818 287.179 85.8713C288.944 90.539 289.886 95.4787 289.962 100.47C290.021 108.463 290.221 116.387 289.902 124.321C289.582 130.637 288.943 136.934 287.987 143.185C286.401 154.227 284.575 165.238 282.78 176.249C282.409 178.779 281.812 181.27 280.994 183.693C278.231 191.277 277.374 199.151 277.154 207.104C276.935 215.318 276.745 223.561 277.154 231.765C277.789 243.733 279.767 255.591 283.049 267.116C287.73 283.572 293.844 299.584 301.323 314.968C306.819 326.349 312.514 337.66 317.591 349.241C323.248 361.917 326.886 375.404 328.374 389.209C329.092 396.273 328.533 403.477 328.454 410.612C328.454 413.03 328.035 415.438 327.865 417.856C327.686 420.594 326.469 422.332 323.636 422.922C320.215 423.641 316.853 424.6 313.452 425.39C310.26 426.119 309.392 425.33 309.302 421.943C309.153 416.297 309.252 410.632 308.734 405.016C307.138 387.64 301.921 371.383 294.031 355.815C287.687 343.285 280.167 331.485 272.815 319.574C266.252 308.943 261.684 297.592 257.684 285.771C252.714 270.823 249.321 255.395 247.56 239.738C247.097 234.757 246.96 229.75 247.151 224.75C247.27 215.198 247.58 205.645 247.819 196.083C247.879 193.795 248.028 191.507 248.018 189.219C248.018 171.563 248.138 153.897 247.759 136.261C247.458 128.194 246.702 120.151 245.495 112.17C244.258 103.118 242.652 94.1147 240.916 85.1919C239.481 78.3291 237.104 71.6982 233.854 65.4876C233.462 64.6389 233.129 63.7642 232.857 62.8697C232.787 62.6399 232.937 62.3801 233.096 61.5608H233.066ZM107.995 161.95C105.601 156.485 106.499 151.229 109.501 146.533C113.9 139.658 120.553 136.541 128.702 136.771C135.405 136.98 142.108 137.32 148.821 137.61C149.35 137.61 149.888 137.72 150.417 137.78C164.381 137.73 178.346 137.33 192.31 137.78C201.397 138.07 210.454 139.538 219.511 140.588C223.501 141.047 227.491 141.587 231.421 142.416C234.513 143.036 235.051 143.685 235.021 146.783C234.922 162.264 234.752 177.741 234.513 193.215C234.413 199.54 233.974 205.845 233.745 212.2C233.585 216.507 233.256 216.647 229.057 216.367C222.224 215.927 215.372 215.897 208.539 215.458C196.073 214.518 183.554 214.558 171.094 215.578C167.384 215.987 163.673 216.477 159.953 216.797C152.462 217.436 144.991 217.996 137.48 218.565C136.003 218.683 134.522 218.727 133.041 218.695C129.465 218.561 126.013 217.343 123.142 215.202C120.271 213.061 118.116 210.098 116.962 206.705C115.057 201.049 113.651 195.264 113.97 189.299C114.548 179.546 111.805 170.644 107.995 161.95ZM134.926 232.444C136.024 230.566 137.969 230.246 139.804 230.096C148.093 229.396 156.382 228.817 164.681 228.227C167.065 228.058 169.458 228.028 171.842 227.928C173.823 227.603 175.822 227.396 177.827 227.308C188.42 227.448 199.023 227.688 209.626 227.908C214.324 228.008 219.022 228.098 223.71 228.307C226.114 228.417 228.508 228.817 230.902 229.017C231.377 229.004 231.85 229.095 232.287 229.283C232.724 229.471 233.115 229.752 233.433 230.106C233.751 230.461 233.988 230.88 234.128 231.336C234.268 231.791 234.307 232.272 234.243 232.744C234.064 242.656 236.627 252.188 238.233 261.841C239.171 267.376 240.827 272.832 242.223 278.267C243.221 282.184 242.682 283.034 238.622 283.263C231.261 283.713 223.87 283.873 216.549 284.642C210.703 285.272 204.938 286.641 199.133 287.64C197.687 287.89 196.22 288.01 194.754 288.189C190.236 290.618 185.348 289.658 180.59 289.678C176.85 289.678 173.109 289.309 169.369 289.089C168.698 289.114 168.026 289.047 167.374 288.889C159.015 285.831 150.736 282.704 145.43 274.81C141.949 269.654 138.866 264.359 137.081 258.333C135.784 253.957 134.089 249.69 132.532 245.394C130.777 240.608 132.542 236.501 134.906 232.444H134.926ZM173.857 306.045C177.588 305.046 181.428 304.406 185.218 303.657C191.788 302.358 198.358 301.082 204.928 299.83C205.846 299.65 206.783 299.63 207.711 299.54C212.21 298.901 216.688 297.992 221.217 297.692C228.847 297.172 236.518 297.042 244.158 296.693C247.44 296.553 247.998 296.693 249.036 299.61C254.143 313.799 262.152 326.409 270.182 339.019C272.277 342.316 274.361 345.624 276.286 349.011C278.211 352.398 277.633 353.517 273.883 354.187C264.367 355.885 254.841 357.544 245.335 359.323C241.914 359.962 238.543 360.911 235.151 361.721C229.525 364.199 223.91 366.717 218.264 369.135C206.295 374.261 196.948 368.825 190.674 360.781C186.336 355.133 182.802 348.908 180.171 342.286C177.741 336.752 174.9 331.408 171.673 326.299C169.53 322.559 168.338 318.349 168.202 314.039C167.952 309.782 169.748 307.174 173.857 306.045ZM103.377 30.9153C106.16 29.0368 110.239 28.787 113.79 28.4373C116.736 28.2961 119.688 28.5244 122.578 29.1167C129.201 30.1759 135.794 31.4149 142.387 32.6139C143.435 32.8038 144.452 33.1735 145.48 33.4632C152.402 35.002 159.444 36.1811 166.217 38.1695C180.012 42.1663 193.677 46.7226 207.412 50.9592C209.465 51.5749 211.246 52.8761 212.459 54.6463C222.644 68.6487 228.995 85.0764 230.882 102.298C231.71 109.502 232.677 116.707 233.565 123.911C233.682 124.711 233.718 125.521 233.675 126.329C233.515 128.657 232.677 129.406 230.284 129.137C223.621 128.397 216.918 127.838 210.334 126.799C194.435 124.311 178.416 124.4 162.456 124.8C161.168 125.044 159.865 125.204 158.556 125.28C146.178 125.28 133.789 125.22 121.411 125.34C118.858 125.368 116.326 124.887 113.961 123.924C111.596 122.962 109.446 121.538 107.636 119.734C99.6562 112.37 96.6638 103.018 96.4743 92.556C96.2848 84.5624 96.4045 76.6487 96.1451 68.695C95.9257 61.8505 95.2873 55.026 94.9482 48.1815C94.6763 44.8105 95.3154 41.4285 96.7985 38.3903C98.2815 35.3522 100.554 32.7702 103.377 30.9153ZM22.9416 124.171C22.7022 121.093 22.4129 118.016 22.1935 114.938C22.0339 112.65 22.8119 111.94 25.1859 111.691C29.0582 111.392 32.9068 110.837 36.7065 110.032C42.1435 108.764 46.8839 105.447 49.9428 100.769C55.9276 91.4868 57.2342 81.4748 53.3541 71.1131C51.1497 65.2278 46.8806 60.5715 42.2324 56.4848C40.437 54.9061 37.704 54.2366 35.2502 53.5771C29.1458 51.8985 28.3378 50.0799 31.8788 44.944C33.6343 42.4061 35.4796 39.948 37.3549 37.47C39.2301 34.992 39.9483 34.9321 42.8409 36.0112C47.3893 37.7198 50.7508 41.0971 54.1621 44.2746C58.5808 48.4013 63.0694 52.5979 66.7101 57.3741C71.2584 63.2448 74.1209 70.2477 74.989 77.6279C75.2085 79.4964 75.2185 81.3849 75.3282 83.2634C75.9466 89.4984 74.1711 95.2538 71.847 100.909C70.44 104.431 68.1273 107.516 65.1441 109.852C63.9677 110.751 62.9028 111.787 61.9722 112.94C55.4488 121.213 46.5515 125.26 36.517 127.108C33.341 127.63 30.1298 127.908 26.9115 127.938C23.9889 128.058 23.2009 127.138 22.9416 124.171ZM48.9254 232.234C47.5689 228.867 46.332 225.45 45.1749 222.012C44.377 219.634 44.6762 219.015 47.1699 218.126C51.2275 216.631 54.7629 213.986 57.344 210.512C61.7428 205.026 65.6229 199.301 67.2587 192.256C67.8279 189.962 67.9161 187.574 67.5178 185.244C67.1195 182.913 66.2434 180.691 64.9446 178.717C62.3023 174.488 59.2987 170.496 55.9675 166.787C51.4889 161.871 45.3944 159.462 39.0107 158.074C36.9359 157.614 34.5221 158.343 32.3177 158.803C29.5547 159.382 28.8266 159.183 28.258 156.605C27.1675 151.755 26.17 146.893 25.2657 142.016C24.8168 139.658 25.4851 138.829 27.9987 138.639C29.9936 138.489 31.9885 138.639 34.0433 138.639C48.2072 138.639 60.8451 143.305 71.089 152.908C77.4528 158.903 82.5398 166.197 82.3403 175.779C82.4322 176.982 82.6021 178.176 82.849 179.357C83.3078 183.213 83.8465 187.07 84.1557 190.937C84.5548 195.661 83.6943 200.405 81.662 204.686C79.5275 209.173 77.8218 213.989 74.9691 217.966C72.1233 221.702 68.7145 224.972 64.8648 227.658C61.3238 230.246 57.1644 232.014 53.1945 233.973C50.7907 235.162 49.9727 234.792 48.9454 232.234H48.9254ZM95.4669 327.758C93.6615 325.25 92.0057 322.632 90.3998 319.994C89.1629 317.996 89.4023 317.056 91.5768 316.377C98.3296 314.299 102.649 309.383 106.259 303.787C110.578 297.142 110.529 289.868 106.978 283.054C104.913 279.057 101.711 275.62 98.6189 272.302C95.5267 268.985 90.9484 267.306 86.2603 267.196C79.697 267.006 73.1138 266.437 66.5904 267.906C63.7277 268.555 62.9198 268.185 61.7727 265.608C60.193 262.047 58.7948 258.409 57.5834 254.706C56.7156 252.028 57.7529 250.23 60.4261 249.381C61.9486 248.854 63.5542 248.61 65.1641 248.661C74.2609 249.161 83.4275 249.301 92.4346 250.52C103.935 252.088 112.643 258.753 119.615 267.796C121.002 269.594 122.219 271.543 123.436 273.481C128.772 281.994 128.962 282.734 128.533 293.825C128.473 298.731 128.353 304.656 126.009 310.242C125.601 311.521 124.977 312.721 124.164 313.789C118.179 320.144 112.384 326.729 103.905 330.026C99.4667 331.755 98.3196 331.675 95.4868 327.758H95.4669ZM148.931 410.362C146.477 407.364 144.352 404.067 142.148 400.859C141.968 400.611 141.84 400.329 141.773 400.03C141.705 399.731 141.698 399.421 141.753 399.12C141.808 398.818 141.924 398.53 142.093 398.275C142.262 398.019 142.481 397.8 142.737 397.632C142.946 397.463 143.169 397.312 143.405 397.182C146.856 395.134 149.769 392.536 150.826 388.529C152.302 382.904 153.14 377.158 151.524 371.423C149.599 364.598 144.861 360.112 138.557 357.504C134.905 356.119 131.132 355.082 127.286 354.406C123.486 353.627 119.845 354.666 116.314 356.115C112.783 357.564 112.164 357.394 110.169 354.037C108.314 350.919 106.499 347.772 104.863 344.544C103.227 341.317 103.476 340.148 106.968 338.619C112.154 336.341 117.561 334.842 123.336 335.192C127.485 335.442 131.645 335.841 135.794 335.751C142.956 335.602 148.203 339.518 153.519 343.455C160.242 348.451 164.152 355.326 167.174 362.98C169.389 368.565 171.284 374.091 170.326 379.466C170.75 385.356 169.976 391.271 168.052 396.853C165.758 403.507 160.761 407.684 155.145 411.251C154.68 411.604 154.149 411.861 153.584 412.007C153.019 412.154 152.431 412.187 151.853 412.104C151.275 412.021 150.719 411.825 150.218 411.526C149.716 411.227 149.279 410.831 148.931 410.362ZM231.84 468.146C230.842 470.684 229.017 471.313 226.703 470.094C223.86 468.595 221.067 466.996 218.214 465.518C217.4 465.179 216.738 464.552 216.355 463.756C215.973 462.96 215.896 462.05 216.14 461.201C216.339 460.142 216.419 459.063 216.668 458.024C218.593 450.03 215.411 443.595 210.374 437.76C209.496 436.761 208.379 435.941 207.551 434.882C201.397 426.888 186.425 425.68 178.625 432.234C178.216 432.584 177.717 432.814 177.288 433.134C172.75 436.491 172.78 436.471 168.66 432.424C166.466 430.256 164.102 428.247 161.938 426.039C159.534 423.601 159.733 422.722 162.347 420.594C169.743 414.363 179.242 411.209 188.889 411.781C200.061 411.271 209.836 415.128 218.474 422.162C223.374 426.214 227.247 431.371 229.775 437.21C230.846 439.801 231.496 442.547 231.7 445.344C232.239 451.339 232.488 457.394 232.697 463.429C232.716 465.045 232.425 466.65 231.84 468.156V468.146ZM224.069 408.503C220.063 405.266 216.94 401.066 214.992 396.293C212.279 389.918 214.992 383.373 220.768 380.895C229.326 377.178 237.864 373.042 247.27 371.633C247.805 371.603 248.341 371.603 248.876 371.633C259.489 369.994 270.072 368.205 280.715 366.767C285.553 366.107 285.782 366.527 287.618 370.963C294.228 386.484 297.797 403.133 298.131 420.004C298.246 422.15 298.476 424.288 298.819 426.409C299.198 429.556 298.819 430.276 296.066 431.405C291.697 433.154 287.308 434.812 282.92 436.511C277.124 438.709 271.279 437.79 265.534 436.431C262.705 435.601 259.963 434.5 257.345 433.143C255.895 432.445 254.53 431.584 253.275 430.576C250.283 428.287 247.54 425.779 244.537 423.581C237.725 418.495 230.712 413.739 224.069 408.513V408.503ZM251.599 533.773C251.26 533.195 250.97 532.591 250.731 531.964C249.155 527.814 247.593 523.664 246.043 519.514C244.255 514.852 243.715 509.802 244.477 504.866C244.996 501.439 244.677 497.872 244.787 494.395C244.946 489.289 247.22 484.802 249.175 480.256C249.302 479.865 249.514 479.508 249.794 479.209C250.075 478.91 250.418 478.676 250.799 478.526C251.181 478.375 251.59 478.31 251.999 478.336C252.408 478.363 252.806 478.479 253.165 478.677C260.287 481.525 267.21 484.592 272.805 490.188C276.456 493.835 278.66 497.802 278.122 503.068C278.072 504.01 278.072 504.953 278.122 505.895H278.311C277.882 510.162 277.603 514.458 277.005 518.705C276.386 523.112 273.523 526.199 270.162 528.697C268.371 529.889 266.462 530.893 264.467 531.695C261.933 532.904 259.33 533.993 256.806 535.232C254.023 536.631 253.145 536.431 251.599 533.783V533.773ZM298.649 591.367C298.388 591.643 298.071 591.858 297.718 591.999C297.366 592.141 296.988 592.204 296.609 592.185C296.23 592.166 295.86 592.065 295.523 591.889C295.187 591.714 294.892 591.467 294.66 591.167C282.77 579.726 270.122 568.945 262.801 553.597C260.935 549.69 261.095 548.601 265.135 547.442C278.581 543.525 290.73 545.604 300.485 556.225C304.315 560.574 306.851 565.912 307.806 571.633C307.786 580.875 304.225 586.621 298.649 591.377V591.367ZM353.779 636.471C351.704 640.468 350.956 640.827 347.435 638.229C339.645 632.484 332.144 626.349 324.254 620.763C318.708 616.837 313.97 612.13 309.232 607.354C306.619 604.716 306.629 604.456 309.083 601.789C315.427 594.884 323.307 591.996 332.593 592.886C334.997 593.116 337.491 593.026 339.795 593.645C343.791 594.64 347.498 596.562 350.616 599.256C353.735 601.95 356.178 605.34 357.749 609.153C358.687 611.271 358.587 613.859 358.956 616.227C358.733 623.277 356.965 630.191 353.779 636.481V636.471ZM420.21 670.664C419.931 674.161 419.063 674.66 415.751 673.241C408.31 670.154 400.879 667.026 393.578 663.629C384.81 659.552 376.162 655.206 367.504 650.899C366.026 650.006 364.615 649.004 363.285 647.902C364.761 646.233 365.709 644.734 367.035 643.745C368.958 642.277 371.047 641.043 373.259 640.068C383.882 635.552 394.705 634.432 405.826 638.369C411.811 640.488 416.18 644.474 419.582 649.64C420.395 650.874 420.85 652.309 420.898 653.787C420.828 659.413 420.659 665.058 420.21 670.674V670.664ZM503.548 682.654C499.898 683.489 496.205 684.12 492.486 684.542C489.304 684.992 486.092 685.252 483.15 685.542C474.063 684.542 465.195 683.703 456.468 682.544C450.094 681.675 443.77 680.406 437.446 679.167C433.596 678.407 433.267 677.558 434.454 673.911C436.793 667.096 441.362 661.272 447.421 657.384C448.938 656.497 450.385 655.495 451.75 654.386C455.37 650.999 459.659 650.24 464.417 650.39C470.333 650.391 476.223 651.177 481.933 652.728C494.231 656.315 502.161 664.498 506.68 676.249C508.276 680.446 507.817 681.595 503.548 682.684V682.654ZM538.928 670.154C534.279 672.252 529.541 674.151 524.734 675.869C520.105 677.468 519.617 677.038 517.921 672.582C512.565 658.593 503.418 648.072 489.204 642.686C479.257 638.811 468.513 637.438 457.914 638.689C454.604 639.233 451.436 640.435 448.598 642.226C444.448 644.674 440.618 647.732 436.728 650.56C434.434 652.218 433.516 652.078 432.529 649.56C426.544 634.223 414.854 626.579 399.094 623.901C391.802 622.536 384.28 623.111 377.279 625.57C376.77 625.749 376.282 625.929 375.743 626.059C372.043 626.988 371.324 626.319 371.554 622.352C371.903 619.01 372.04 615.65 371.963 612.29C371.284 602.298 365.759 594.984 358.517 588.759C350.388 581.765 340.762 578.937 330.149 579.107C328.005 579.227 325.85 579.377 323.706 579.466C321.791 579.546 320.843 578.467 321.162 576.689C323.027 566.617 317.771 558.623 313.182 550.709C308.714 542.986 301.143 538.579 293.094 535.142C291.986 534.662 290.809 534.363 289.682 533.923C286.76 532.784 286.46 531.924 287.847 529.047C291.947 520.364 293.592 503.497 291.358 494.275C289.762 487.65 285.613 482.674 280.675 478.497C276.805 475.24 272.227 472.822 267.928 470.084C266.93 469.435 265.733 469.085 264.726 468.375C263.05 467.296 262.731 465.717 264.177 464.379C269.685 459.005 276.102 454.654 283.129 451.529C283.796 451.204 284.548 451.096 285.279 451.219C286.01 451.343 286.685 451.692 287.209 452.218C290.66 455.216 294.261 458.054 297.572 461.211C312.744 475.65 317.432 493.545 314.429 513.829C314 516.737 314.529 518.825 317.122 520.294C317.94 520.753 318.599 521.493 319.427 521.923C326.299 525.55 330.877 531.625 335.675 537.4C340.189 542.827 343.022 549.457 343.824 556.475C344.423 561.311 345.66 560.811 349.4 561.661C355.914 563.149 362.557 564.658 368.671 567.186C372.461 568.785 375.444 572.362 378.646 575.18C383.274 579.247 386.376 584.452 389.109 589.898C390.196 592.066 391.313 594.215 392.351 596.403C393.388 598.591 394.914 599.74 397.448 599.5C398.914 599.371 400.44 599.68 401.877 599.62C407.742 599.391 413.078 600.769 417.656 604.616C417.864 604.79 418.096 604.931 418.345 605.036C426.484 608.214 432.469 614.199 438.364 620.344C440.678 622.762 440.648 622.442 443.82 621.153C447.593 619.43 451.548 618.139 455.61 617.306C465.864 615.638 476.267 615.178 486.531 617.306C500.495 620.184 511.966 627.938 522.33 637.4C530.489 644.854 536.464 653.937 541.082 663.939C542.808 667.696 542.618 668.435 538.928 670.154ZM569.988 674.151L568.931 675.15L568.781 673.831L570.088 672.972C570.058 673.361 570.028 673.731 569.988 674.151ZM570.697 672.432C570.637 672.352 570.527 672.252 570.537 672.182C570.547 672.112 570.677 672.042 570.757 671.972L570.926 672.232L570.697 672.432ZM573.968 625.13C572.851 628.289 571.556 631.381 570.088 634.393C569.517 635.54 568.528 636.423 567.325 636.861C565.779 637.29 565.201 635.702 564.502 634.522C560.273 627.174 555.231 620.326 549.471 614.109C541.132 605.386 531.107 598.861 520.734 592.866C506.231 584.482 490.531 579.157 474.561 574.391C459.6 569.904 444.638 565.158 429.855 559.832C418.584 555.745 409.198 548.451 401.248 539.458C397.787 535.542 394.555 531.465 391.274 527.358C385.289 519.944 381.927 511.111 378.127 502.518C373.013 490.974 367.893 479.437 362.766 467.906C359.385 460.302 354.058 454.047 348.503 448.022C345.42 444.684 341.8 441.827 338.438 438.739C337.51 437.89 336.623 436.98 335.725 436.101L336.084 434.952C337.3 434.506 338.547 434.148 339.815 433.883C345.241 433.084 350.687 432.464 356.113 431.605C359.283 431.028 362.552 431.69 365.25 433.453C372.232 437.75 378.596 442.586 382.745 449.73C385.013 453.694 386.912 457.859 388.421 462.17C390.216 467.226 391.064 472.622 392.969 477.628C397.318 489.049 401.946 500.33 409.188 510.382C416.689 520.743 425.337 529.816 436.119 536.731C446.174 543.185 456.318 549.6 467.499 553.937C477.135 557.664 487.04 560.662 496.775 564.139C506.749 567.716 516.724 571.373 526.549 575.2C541.881 580.988 554.862 591.711 563.455 605.685C566.866 611.151 570.308 616.597 573.619 622.122C574.114 623.029 574.239 624.093 573.968 625.09V625.13ZM587.374 601.149C585.549 603.807 583.863 606.575 582.098 609.283C580.332 611.99 578.706 611.98 577.11 609.153C574.647 604.826 572.313 600.42 569.749 596.163C560.642 581.025 547.117 571.283 531.267 564.189C519.088 558.713 506.331 554.826 493.822 550.37C486.102 547.612 478.102 545.484 470.661 542.086C462.003 538.09 453.705 533.303 445.486 528.517C435.601 522.772 427.681 514.858 420.719 505.745C412.21 494.624 407.113 482.014 403.123 468.775C400.909 461.431 399.064 453.967 395.144 447.232C392.251 442.236 389.408 437.24 384.8 433.443C383.533 432.444 381.508 431.255 382.227 429.267C382.945 427.278 385.279 427.448 387.134 427.428C390.496 427.428 393.867 427.428 397.228 427.428C400.729 427.428 404.211 427.328 407.722 427.428C409.043 427.415 410.336 427.813 411.422 428.567C414.684 431.355 417.797 434.314 420.749 437.43C422.607 439.362 424.167 441.561 425.377 443.955C428.81 450.822 430.902 458.284 431.541 465.937C432.329 475.789 434.354 485.392 439.82 493.915C446.549 504.546 455.914 513.249 467.001 519.175C481.414 526.948 496.924 530.925 512.884 533.533C522.418 535.146 531.838 537.379 541.082 540.218C549.211 542.646 555.695 548.022 561.59 554.107C567.693 560.382 573.353 567.077 578.527 574.141C582.626 579.746 585.449 585.981 588.222 592.266C588.901 593.668 589.18 595.231 589.031 596.782C588.881 598.333 588.308 599.813 587.374 601.059V601.149ZM600.471 581.005C599.788 581.868 599.02 582.658 598.177 583.363C595.713 582.794 595.254 580.935 594.586 579.367C589.838 568.375 582.367 559.183 574.567 550.27C572.053 547.402 571.904 546.563 574.567 543.885C580.657 537.779 587.775 532.796 595.593 529.167C611.134 521.783 626.684 514.438 642.195 507.014C646.294 505.016 646.354 505.016 648.977 508.723C649.276 509.169 649.609 509.59 649.975 509.982C655.96 516.277 654.374 523.451 649.875 528.158C644.888 533.423 640.529 539.149 635.911 544.734C633.337 547.792 630.125 550.33 627.113 553.008C617.428 561.611 607.682 570.084 600.471 581.005ZM812.142 880.346C805.279 888.569 799.554 897.692 791.694 905.136C787.335 909.263 783.654 914.129 779.655 918.605C776.568 921.994 772.604 924.46 768.204 925.729C764.134 929.417 759.496 929.786 754.499 928.098C751.426 928.547 749.072 926.769 746.678 925.38C744.477 924.096 742.406 922.6 740.494 920.913C734.559 915.697 728.525 910.552 722.909 905.016C716.406 898.621 710.231 891.897 704.027 885.212C702.079 883.01 700.289 880.672 698.671 878.217C698.142 877.458 698.132 876.349 697.753 874.9C699.509 874.9 700.676 874.9 701.843 874.9C708.526 875.1 715.209 875.36 721.902 875.5C723.098 875.4 724.281 875.179 725.433 874.84C730.819 874.071 735.736 871.913 740.494 869.445C747.209 865.949 754.931 864.91 762.329 866.507C768.253 867.658 773.97 869.7 779.285 872.562C784.308 875.168 789.878 876.539 795.534 876.559C796.96 876.682 798.392 876.725 799.823 876.689C804.172 876.389 808.511 875.969 812.69 875.61C814.047 877.658 813.149 879.147 812.152 880.346H812.142ZM850.135 815.038C850.062 815.298 849.947 815.544 849.796 815.767C843.731 827.308 837.607 838.819 831.632 850.41C829.637 854.297 826.046 856.155 822.525 858.034C816.458 861.239 809.766 863.081 802.915 863.429C796.959 864.562 790.797 863.709 785.37 861.001C779.476 858.087 773.249 855.902 766.827 854.496C765.804 854.192 764.804 853.815 763.835 853.367C761.491 854.077 759.276 853.367 757.072 852.708C748.449 853.732 740.077 856.283 732.345 860.242C728.565 862.24 724.006 862.81 719.807 864.029C713.244 864.399 706.561 864.948 700.217 863.219C694.97 861.781 690.073 859.073 685.026 856.924C682.042 855.627 679.594 853.341 678.093 850.45C677.315 849.051 676.318 847.762 675.55 846.353C669.804 835.891 663.58 825.64 659.909 814.179C659.472 812.418 659.139 810.633 658.912 808.833C667.121 811.691 674.004 815.388 681.854 816.827C689.704 818.265 697.294 819.764 705.134 820.584C714.111 820.953 722.46 818.325 730.909 815.847C736.992 813.898 743.317 812.805 749.701 812.6C754.688 811.701 759.526 812.72 764.383 813.529C765.83 813.769 767.256 814.099 768.692 814.379C775.605 815.957 782.457 817.896 789.44 819.015C795.983 820.014 802.596 821.233 809.389 820.014C813.039 819.345 816.83 819.404 820.56 819.135C825.548 818.086 830.535 817.206 835.472 815.927C840.41 814.648 845.068 813 850.534 811.301C850.374 813.04 850.275 814.039 850.135 815.038ZM874.393 741.327C872.518 748.181 870.553 755.016 868.628 761.861C866.952 767.796 865.117 773.691 863.641 779.686C862.766 784.048 860.355 787.948 856.848 790.677C848.191 797.527 838.04 802.228 827.223 804.396C826.424 804.505 825.616 804.548 824.81 804.526C822.216 805.006 819.633 805.586 817.019 805.945C805.503 807.696 793.745 806.922 782.557 803.677C778.876 802.578 775.056 801.938 771.296 801.089C767.904 800.59 764.483 800.19 761.112 799.56C756.838 798.663 752.427 798.643 748.145 799.5C739.557 800.924 731.108 803.083 722.889 805.955C715.694 808.541 707.993 809.4 700.406 808.463C693.683 809.203 687.499 806.465 681.036 805.466C673.815 804.368 666.984 801.475 661.166 797.052C657.067 793.945 653.376 790.198 649.197 787.06C648.236 786.103 647.548 784.906 647.202 783.593C642.604 770.664 639.751 757.254 636.719 743.905C636.489 742.906 636.998 741.747 637.207 740.388C638.034 740.588 638.836 740.876 639.601 741.247C647.691 746.593 656.68 750.428 666.134 752.568C672.886 754.197 679.759 755.316 686.582 756.665C700.935 757.224 714.81 754.746 728.475 750.37C732.116 749.211 736.095 749.121 739.916 748.541C752.344 748.062 764.723 748.381 776.951 751.049C782.936 752.428 788.921 753.887 794.906 755.166C802.609 756.933 810.58 757.204 818.386 755.965C824.301 754.966 830.166 753.667 836.051 752.508C838.158 751.639 840.321 750.911 842.524 750.33C852.409 748.331 861.207 743.755 870.004 739.109C871.496 738.488 873.029 737.974 874.593 737.57C874.634 738.812 874.567 740.056 874.393 741.287V741.327ZM878.154 712.57C878.201 713.768 877.952 714.959 877.43 716.038C876.908 717.116 876.129 718.05 875.161 718.755C864.189 727.518 852.13 733.913 838.435 737.09C833.019 738.509 827.642 740.088 822.166 741.307C812.592 743.279 802.691 743.006 793.24 740.508C787.814 739.169 782.268 738.229 776.822 737.09C776.582 737.04 776.393 736.791 776.183 736.631C765.537 735.238 754.798 734.687 744.065 734.982C743.343 735.293 742.581 735.502 741.801 735.602C733.891 735.472 726.48 737.9 719.049 740.118C712.522 742.136 705.778 743.364 698.96 743.775C696.027 743.915 693.105 744.345 690.172 744.395C688.444 744.291 686.727 744.054 685.035 743.685C680.806 743.056 676.577 742.446 672.358 741.787C664.549 740.421 656.974 737.945 649.865 734.432C644.018 731.641 638.848 727.607 634.714 722.612C633.502 721.012 632.76 719.105 632.569 717.106C631.284 705.218 630.741 693.261 630.943 681.305C631.013 678.098 631.342 674.89 631.731 671.703C632.04 669.145 633.626 668.595 635.621 670.344C646.753 680.066 660.308 684.123 674.353 686.97C676.835 687.363 679.335 687.63 681.844 687.77C684.257 687.84 686.671 687.87 689.075 687.98C701.982 688.559 714.311 685.562 726.54 681.984C729.103 681.235 731.667 680.516 734.23 679.776C739.317 678.777 744.354 677.328 749.481 676.849C759.743 675.873 770.095 676.719 780.063 679.347C785.45 680.975 790.836 682.564 796.202 684.243C805.04 687.01 814.157 687.54 823.263 687.02C827.253 686.791 831.243 685.941 835.183 685.382C837.318 684.662 839.422 683.763 841.607 683.253C849.971 681.236 857.877 677.649 864.907 672.682C867.78 670.684 870.663 668.685 873.625 666.897C875.959 665.448 877.386 666.147 877.954 668.815C877.998 669.079 878.021 669.347 878.024 669.614C878.293 679.267 878.682 688.919 878.782 698.591C878.832 703.178 878.134 707.854 878.154 712.53V712.57ZM903.858 578.487C903.273 579.858 902.607 581.193 901.863 582.484C901.725 582.762 901.517 582.999 901.258 583.17C901 583.342 900.701 583.443 900.392 583.462C900.083 583.481 899.774 583.418 899.496 583.28C899.219 583.142 898.982 582.933 898.811 582.674C898.12 581.848 897.49 580.973 896.926 580.056C891.575 572.458 885.266 565.587 878.154 559.612C876.128 557.836 874.206 555.945 872.398 553.947C866.723 547.842 860.977 541.797 855.531 535.492C853.274 532.646 851.271 529.607 849.547 526.409C849.137 525.493 848.874 524.519 848.768 523.521C848.768 519.185 850.763 516.217 852.659 513.319C856.229 507.734 856.648 507.834 862.633 510.672C876.488 517.226 890.452 523.551 904.267 530.196C911.544 533.704 918.166 538.436 923.847 544.185C926.181 546.533 926.241 547.682 923.917 549.94C917.703 555.995 912.945 563.169 908.087 570.294C906.521 572.927 905.109 575.649 903.858 578.447V578.487ZM920.306 610.132C919.309 611.531 917.553 611.641 916.596 610.192C914 606.422 911.606 602.516 909.424 598.491C909.09 597.701 908.919 596.851 908.919 595.993C908.919 595.135 909.09 594.286 909.424 593.495C912.177 587.5 914.83 581.415 918.401 575.909C922.979 568.785 928.645 562.45 934.43 556.205C939.408 550.727 945.214 546.067 951.637 542.396C957.232 539.249 963.486 537.99 969.591 536.571C977.82 534.662 986.149 533.054 994.527 531.765C1007.2 529.766 1018.89 525.25 1030.23 519.494C1036.84 516.142 1042.9 511.784 1048.18 506.575C1058.9 496.033 1065.03 483.383 1066.23 468.385C1066.77 460.455 1068.69 452.679 1071.88 445.404C1073.93 440.847 1077.06 436.857 1080.99 433.773C1082.53 432.694 1083.94 431.44 1085.19 430.036C1085.84 429.11 1086.73 428.37 1087.76 427.89C1088.79 427.41 1089.92 427.206 1091.05 427.298C1097.64 427.438 1104.25 427.368 1110.84 427.358C1111.9 427.256 1112.96 427.403 1113.95 427.786C1114.94 428.169 1115.82 428.779 1116.54 429.566C1115.26 431.015 1114.23 432.404 1113 433.563C1105.49 440.558 1100.76 449.371 1097.93 458.993C1094.59 470.384 1090.95 481.605 1085.87 492.356C1082.33 499.89 1077.14 506.265 1071.84 512.52C1063.24 522.682 1051.78 529.027 1040.56 535.751C1031.21 541.357 1020.88 544.365 1010.79 548.012C999.395 552.118 987.844 555.795 976.543 560.082C967.7 563.34 959.225 567.523 951.258 572.562C943.508 577.484 936.826 583.916 931.607 591.477C928.096 596.573 925.104 602.008 921.902 607.304C921.304 608.203 920.945 609.203 920.306 610.092V610.132ZM952.863 609.882C945.163 616.547 939.547 624.97 934.121 633.493C933.682 634.173 933.423 634.972 932.954 635.622C931.558 637.62 929.583 637.62 928.485 635.452C926.836 632.071 925.374 628.602 924.107 625.06C923.966 624.552 923.927 624.021 923.992 623.498C924.057 622.975 924.225 622.47 924.486 622.012C928.336 615.717 932.246 609.453 936.286 603.277C944.814 590.288 956.684 581.495 970.888 575.37C984.094 569.664 997.699 565.168 1011.36 560.861C1030.2 554.992 1048.06 546.337 1064.35 535.182C1074.43 528.257 1082.44 519.275 1089.65 509.423C1094.79 502.378 1098.24 494.514 1101.52 486.611C1104.52 479.337 1106.39 471.623 1109.07 464.149C1110.74 459.205 1112.83 454.412 1115.31 449.82C1119.98 441.617 1127.43 436.281 1135.62 431.984C1136.96 431.393 1138.45 431.196 1139.9 431.415C1146.27 432.174 1152.63 433.084 1158.99 434.043C1160.34 434.411 1161.65 434.903 1162.91 435.512C1161.16 437.19 1160.05 438.449 1158.74 439.508C1150.22 446.253 1142.78 454.147 1137.68 463.669C1132.11 474.051 1127.54 484.982 1122.8 495.793C1117.57 507.724 1112.97 519.934 1104.77 530.316C1093.22 544.964 1079.7 556.865 1061.47 562.44C1046.34 567.066 1031.18 571.603 1016.1 576.429C993.021 583.663 971.356 593.825 952.863 609.842V609.882ZM1061.15 679.107C1054.04 680.496 1046.89 681.805 1039.72 682.834C1032.82 683.833 1025.87 684.592 1018.92 685.182C1015.7 685.295 1012.49 685.218 1009.29 684.952C1007.41 684.956 1005.53 684.829 1003.67 684.572C1000.11 683.992 996.581 683.218 993.101 682.254C990.408 681.455 990.019 680.416 990.966 677.638C995.425 664.598 1004.02 655.775 1017.54 652.418C1022.46 651.199 1027.58 650.819 1032.62 650.05C1035.26 649.833 1037.92 650.171 1040.43 651.042C1042.93 651.912 1045.23 653.296 1047.17 655.106C1048.55 656.188 1050 657.17 1051.51 658.044C1057.36 662.002 1061.69 667.827 1063.81 674.57C1064.77 677.418 1064.29 678.457 1061.15 679.067V679.107ZM1131.97 650.21C1130.71 651.001 1129.42 651.721 1128.09 652.368C1113.07 659.276 1098.05 666.167 1083.02 673.042C1082.66 673.212 1082.29 673.362 1081.9 673.491C1079.22 674.401 1078.04 673.801 1077.71 671.053C1077.23 667.186 1076.96 663.299 1076.6 659.422C1076.69 655.426 1076.74 651.649 1079.35 648.251C1082.62 643.985 1086.44 640.488 1091.51 638.629C1104 634.063 1116.09 635.522 1127.73 641.547C1129.58 642.62 1131.26 643.968 1132.72 645.544C1134.74 647.512 1134.47 648.621 1131.94 650.17L1131.97 650.21ZM1126.32 620.384C1127.32 626.929 1126.53 627.658 1120.43 625.45C1108.36 621.083 1096.68 623.142 1085.52 627.938C1081.1 629.814 1077.1 632.567 1073.77 636.03C1070.44 639.494 1067.84 643.596 1066.13 648.092C1065.89 648.721 1065.72 649.381 1065.43 649.98C1064.43 652.078 1063.6 652.288 1061.69 650.919C1059.19 649.326 1056.81 647.578 1054.53 645.684C1046.82 638.549 1037.51 637.6 1027.75 638.529C1023.62 639.002 1019.52 639.74 1015.48 640.737C998.198 644.734 987.026 655.626 980.473 671.763C980.174 672.512 979.984 673.301 979.675 674.051C978.678 676.409 977.68 677.278 975.336 676.439C969.521 674.371 963.796 672.052 958.15 669.564C956.045 668.625 955.985 667.566 957.152 664.788C961.017 655.155 965.953 645.988 971.865 637.46C975.187 632.764 978.548 627.998 983.515 624.73C993.809 617.976 1004.88 613.449 1017.27 612.58C1021.84 612.267 1026.4 612.004 1030.96 611.791C1033.93 611.624 1036.89 612.347 1039.44 613.869C1041.71 615.002 1044.04 616.003 1046.43 616.867C1046.75 617.055 1047.11 617.17 1047.48 617.202C1047.86 617.234 1048.23 617.183 1048.58 617.052C1048.93 616.921 1049.25 616.713 1049.51 616.445C1049.78 616.176 1049.97 615.853 1050.1 615.498C1053.71 607.824 1060.83 603.597 1066.8 598.251C1067.84 597.397 1069.04 596.761 1070.33 596.383C1080.91 592.946 1091.55 591.447 1102.31 595.604C1102.69 595.743 1103.08 595.843 1103.47 595.953C1107.97 597.272 1108.37 596.733 1109.21 592.276C1110.2 586.871 1110.89 581.055 1113.46 576.389C1116.99 570.004 1121.62 563.859 1128.43 560.402C1133.98 557.586 1140.17 556.296 1146.38 556.665C1153.09 557.014 1152.94 556.934 1153.36 550.35C1153.59 547.55 1154.19 544.792 1155.13 542.146C1155.96 539.608 1157.35 537.25 1158.43 534.782C1162.09 526.489 1168.79 521.583 1176.83 518.166C1177.44 517.906 1178.12 517.776 1178.74 517.526C1181.97 516.207 1182.17 515.857 1181.73 512.39C1181.5 510.651 1181.13 508.933 1180.98 507.194C1179.8 493.545 1183.87 481.215 1191.63 470.354C1196.73 462.981 1204.02 457.391 1212.45 454.367C1216.26 453.048 1219.73 452.968 1223.04 455.755C1226.34 458.543 1229.89 460.941 1233.16 463.749C1235.69 465.897 1235.46 467.276 1232.43 468.835C1227.08 471.385 1222.06 474.569 1217.47 478.317C1208.95 485.672 1204.71 494.764 1205.78 506.125C1206.16 510.122 1206.45 514.179 1206.92 518.185C1207.28 521.943 1208.37 525.594 1210.12 528.937C1211.75 531.934 1211.32 532.934 1208.12 534.013C1200.77 536.318 1194.1 540.41 1188.71 545.923C1186.74 547.939 1185.04 550.211 1183.67 552.678C1181.54 556.73 1179.63 560.892 1177.94 565.148C1176.58 568.545 1176.18 572.25 1176.78 575.859C1177.24 578.857 1176.61 579.516 1173.63 579.456C1171.64 579.406 1169.64 579.217 1167.65 579.087C1155.42 578.877 1144.96 583.014 1136.39 591.757C1128.47 599.7 1124.58 609.003 1126.29 620.344L1126.32 620.384ZM1189.06 607.314C1183.81 612.888 1178 617.91 1171.73 622.302C1164.88 627.298 1158.25 632.544 1151.53 637.69C1151.21 637.93 1150.87 638.16 1150.53 638.379C1146.97 640.688 1146.43 640.528 1144.46 636.741C1141.07 630.447 1139.41 623.364 1139.65 616.217C1138.76 611.011 1140.9 606.135 1144.93 601.919C1149.63 597.012 1154.97 593.345 1162.04 593.156C1165.51 593.056 1169.02 592.916 1172.44 593.156C1179.23 593.635 1184.64 596.972 1189.18 601.859C1191.28 604.207 1191.22 604.886 1189.03 607.274L1189.06 607.314ZM1235.43 553.128C1229.87 564.389 1221.89 573.701 1212.74 582.224C1209.75 584.962 1206.99 587.86 1204.06 590.638C1201.77 592.806 1201.07 592.726 1198.67 590.638C1193.91 586.511 1190.79 581.505 1190.23 575.11C1189.97 573.79 1189.97 572.433 1190.23 571.113C1192.22 565.118 1194.22 559.123 1199 554.566C1205.27 548.671 1213.18 545.773 1222.81 545.574C1225.25 546.033 1229.26 546.573 1233.12 547.572C1236.85 548.531 1237.07 549.66 1235.4 553.088L1235.43 553.128ZM1246.61 533.483C1245.24 536.701 1244.42 536.761 1241.32 535.292C1237.55 533.513 1233.68 531.954 1230 530.036C1224.95 527.418 1221.62 523.341 1220.9 517.546C1220.39 513.419 1220.25 509.243 1219.75 505.116C1218.76 497.022 1222.67 491.247 1228.93 487.13C1233.82 484.087 1238.92 481.396 1244.19 479.077C1247.1 477.698 1247.99 478.138 1249.24 480.995C1251.72 486.681 1253.93 492.466 1253.62 498.861C1253.54 500.6 1253.62 502.358 1253.62 505.026C1255.29 514.808 1250.54 524.051 1246.58 533.443L1246.61 533.483ZM1336.74 425.35C1333.62 428.517 1330.38 431.545 1327.13 434.572C1326.57 435.174 1325.8 435.531 1324.98 435.564C1324.16 435.598 1323.37 435.306 1322.76 434.752C1321.15 433.553 1319.43 432.474 1317.77 431.255C1311.12 426.149 1297.07 427.318 1291.38 433.913C1288.23 437.57 1284.56 440.707 1282.62 445.364C1280.94 449.202 1280.43 453.456 1281.17 457.584C1281.34 458.503 1281.57 459.423 1281.7 460.352C1282.19 463.979 1281.92 464.518 1278.7 466.047C1277.02 466.867 1275.31 467.666 1273.62 468.465C1270.12 470.104 1268.97 469.724 1268.12 466.057C1267.42 462.781 1266.91 459.469 1266.58 456.135C1266.49 454.648 1266.49 453.156 1266.58 451.669C1265.7 444.544 1266.58 438.599 1270.26 433.154C1274.66 426.599 1279.73 420.933 1286.86 417.096C1296.02 412.16 1305.73 410.931 1315.79 411.98C1323.46 412.845 1330.67 416.079 1336.42 421.233C1338.05 422.582 1338.22 423.821 1336.74 425.35ZM1393.34 344.325C1391.5 347.912 1389.49 351.409 1387.42 354.866C1385.96 357.274 1385.03 357.594 1382.43 356.455C1371.82 351.879 1362.41 355.086 1353.65 361.141C1348.23 364.898 1345.74 370.584 1345.76 377.128C1345.81 380.226 1346.12 383.314 1346.68 386.361C1347.02 388.429 1347.81 390.398 1348.98 392.133C1350.16 393.868 1351.69 395.328 1353.48 396.413C1357.1 398.771 1357.1 399.191 1354.67 402.688C1353.36 404.566 1352.14 406.495 1350.81 408.353C1348.53 411.541 1345.42 412.25 1342.07 410.182C1340.7 409.33 1339.5 408.236 1338.52 406.954C1335.42 403.061 1332.52 399.012 1329.83 394.824C1328.64 392.826 1328.27 390.268 1327.99 387.91C1327.81 385.355 1327.79 382.793 1327.92 380.236C1327.8 367.166 1332.05 355.676 1341.35 346.483C1344.84 343.036 1349.21 340.428 1353.42 337.83C1355.43 336.762 1357.65 336.151 1359.92 336.041C1365.13 335.572 1370.38 335.372 1375.62 335.182C1381.15 335.112 1386.63 336.376 1391.58 338.869C1394.53 340.318 1394.86 341.417 1393.34 344.305V344.325ZM1441.04 255.895C1439.62 258.763 1438.25 261.651 1436.86 264.538C1435.05 268.335 1434.55 268.435 1430.27 267.756C1422.85 266.438 1415.25 266.505 1407.85 267.956C1405.11 268.556 1402.56 269.803 1400.39 271.593C1394.71 276.439 1389.79 282.004 1388.85 289.878C1388.19 295.394 1389.11 300.54 1392.61 305.126C1396.42 310.122 1400.47 314.698 1406.81 316.497C1407.39 316.657 1407.8 317.246 1408.8 317.976C1406.72 321.373 1404.96 324.54 1402.82 327.458C1401.94 328.447 1400.73 329.077 1399.42 329.227C1396.61 329.61 1393.75 329.344 1391.06 328.451C1388.37 327.557 1385.92 326.059 1383.9 324.071C1380.83 321.233 1377.97 318.185 1375.03 315.228C1371.6 311.781 1370.53 307.234 1370.04 302.748C1369.43 297.552 1369.37 292.286 1369.26 287.04C1369.16 285.294 1369.43 283.545 1370.06 281.914C1375.33 270.434 1382.44 260.402 1393.92 254.407C1400.73 250.849 1408.23 249.051 1415.77 247.712C1421.48 246.759 1427.29 246.685 1433.01 247.492C1436.22 247.912 1438.25 250.07 1440.55 251.819C1441.83 252.748 1441.78 254.377 1441.04 255.875V255.895ZM1472.59 141.986C1471.71 146.982 1470.59 151.978 1469.6 156.974C1469.22 158.853 1467.98 159.402 1466.13 159.612C1461.87 160.052 1457.64 160.719 1453.45 161.611C1443.27 163.869 1436.86 170.983 1432.68 179.806C1431.36 182.63 1430.67 185.709 1430.65 188.828C1430.63 191.947 1431.29 195.033 1432.58 197.872C1435.37 204.329 1439.58 210.066 1444.91 214.648C1446.59 216.087 1448.82 216.916 1450.9 217.916C1453.27 219.085 1453.7 219.784 1452.82 222.342C1451.68 225.673 1450.46 228.944 1449.16 232.154C1448.1 234.772 1447.34 235.102 1444.87 234.023C1437.31 230.705 1429.75 226.948 1424.78 220.284C1418.09 211.291 1412.43 201.609 1412.43 189.618C1413.11 185.801 1413.77 181.974 1414.43 178.167C1414.71 177.271 1414.95 176.36 1415.14 175.44C1415.69 168.445 1419.13 162.75 1422.95 157.114C1425.5 153.297 1429.09 150.689 1432.74 148.221C1443.93 140.618 1456.41 137.66 1469.85 138.649C1472.44 138.819 1473.03 139.438 1472.59 141.946V141.986ZM1475.74 115.378C1475.52 118.325 1475.22 121.273 1474.86 124.211C1474.51 127.148 1473.87 127.688 1471.01 127.838C1468.73 127.968 1466.45 127.838 1463.38 127.838C1457.49 128.627 1451.3 126.769 1445.53 123.781C1442.88 122.412 1440.73 120.004 1438.55 117.916C1437.08 116.547 1435.97 114.798 1434.56 113.409C1425.07 104.237 1422.3 92.8957 1422.97 80.0759C1423.35 72.9217 1425.79 66.6067 1429.2 60.7114C1431.51 56.7146 1434.98 53.3274 1438.18 49.97C1441.74 46.3077 1445.49 42.8357 1449.42 39.5684C1451.47 38.0673 1453.67 36.7878 1455.99 35.7514C1456.7 35.3372 1457.54 35.2172 1458.34 35.417C1459.14 35.6168 1459.82 36.1205 1460.25 36.8206C1462.63 40.0779 1465.1 43.2854 1467.15 46.7426C1469.21 50.1998 1468.62 51.6587 1464.73 52.9676C1463.84 53.2574 1462.91 53.4373 1462 53.6571C1458.14 54.4376 1454.7 56.6322 1452.37 59.8122C1451.52 61.0188 1450.59 62.1732 1449.6 63.2694C1440.62 73.0216 1440.49 89.4285 1448.13 100.779C1451.25 105.405 1455.97 108.706 1461.38 110.042C1465.03 110.889 1468.74 111.44 1472.48 111.691C1475.46 111.98 1475.97 112.33 1475.74 115.338V115.378Z" fill="#ffffff"/>
<path d="M752.594 405.076C756.483 405.586 760.437 405.266 764.194 404.137C764.194 404.137 770.179 415.318 777.031 416.747C777.031 416.747 771.755 395.603 767.526 392.306C763.296 389.009 747.068 382.604 739.766 384.312C732.465 386.021 730.131 393.905 730.131 393.905C733.706 395.512 737.165 397.365 740.484 399.45C744.893 402.368 746.15 404.207 752.594 405.076ZM754.419 394.714C755.072 396.115 756.151 397.273 757.501 398.022C759.496 398.941 763.346 396.673 763.346 396.673L766.339 397.542C765.415 398.953 764.153 400.111 762.669 400.911C761.185 401.71 759.525 402.125 757.84 402.118C752.853 402.258 749.402 398.221 747.557 394.035L754.419 394.714Z" fill="#ffffff"/>
<path d="M814.626 403.258C816.784 403.358 818.942 403.057 820.99 402.368C824.431 401.249 826.356 396.683 828.57 394.245C830.032 392.717 831.843 391.568 833.847 390.897C833.905 389.567 833.659 388.241 833.129 387.021C832.599 385.799 831.801 384.713 830.795 383.843C827.363 380.895 824.291 381.625 819.493 382.844C814.696 384.063 806.776 388.899 806.477 390.837C806.177 392.776 812.81 413.819 812.81 413.819L814.626 403.258ZM812.082 394.265L814.267 393.056C814.267 393.056 817.628 394.135 819.025 393.056C819.937 392.237 820.566 391.149 820.82 389.948L825.997 388.21C825.299 391.767 823.354 395.504 819.464 396.283C818.162 396.592 816.804 396.568 815.514 396.213C814.225 395.859 813.044 395.185 812.082 394.255V394.265Z" fill="#ffffff"/>
</svg>
