<?xml version="1.0" standalone="no"?>
<!DOCTYPE svg PUBLIC "-//W3C//DTD SVG 20010904//EN"
 "http://www.w3.org/TR/2001/REC-SVG-20010904/DTD/svg10.dtd">
<svg version="1.0" xmlns="http://www.w3.org/2000/svg"
 width="600.000000pt" height="600.000000pt" viewBox="0 0 600.000000 600.000000"
 preserveAspectRatio="xMidYMid meet">
<metadata>
Created by potrace 1.14, written by Peter Selinger 2001-2017
</metadata>
<g transform="translate(0.000000,600.000000) scale(0.100000,-0.100000)"
fill="#000000" stroke="none">
<path d="M230 4888 c-156 -27 -221 -139 -224 -383 -2 -241 20 -361 108 -587
71 -183 118 -268 321 -583 127 -197 255 -321 393 -381 53 -23 62 -30 63 -53 0
-14 2 -33 4 -41 2 -8 6 -30 9 -49 8 -42 64 -163 99 -214 84 -123 207 -239 365
-344 126 -85 171 -107 282 -137 122 -33 157 -38 260 -38 156 -1 261 29 333 95
15 15 27 24 27 22 0 -3 -9 -39 -21 -80 -18 -68 -19 -78 -6 -104 32 -65 -2
-219 -64 -285 -21 -24 -39 -48 -39 -55 0 -20 24 -12 58 20 36 34 43 22 11 -23
-24 -33 -21 -43 10 -33 50 16 113 187 110 297 -1 47 3 74 14 91 8 13 32 95 52
183 35 148 63 240 71 231 2 -2 -3 -37 -11 -78 -16 -84 -14 -390 4 -449 5 -19
12 -47 15 -62 10 -59 48 -184 69 -227 88 -181 146 -263 272 -387 173 -171 271
-174 419 -13 71 78 198 269 242 364 39 85 107 305 124 400 7 39 10 102 9 142
-2 39 -1 70 2 68 3 -2 11 -30 18 -62 8 -32 21 -71 30 -88 10 -19 16 -56 17
-100 1 -79 5 -97 32 -177 24 -66 48 -105 74 -119 33 -18 39 1 12 37 -35 45
-25 54 17 15 17 -17 36 -31 40 -31 23 0 15 24 -24 69 -53 62 -76 136 -71 224
7 113 7 142 0 177 -4 19 -4 30 1 25 27 -34 123 -73 203 -82 171 -20 311 -3
460 56 233 93 543 346 632 517 41 78 65 167 63 231 -2 35 2 43 24 54 86 44
228 150 293 218 77 81 193 243 250 351 19 36 49 91 66 122 46 85 49 90 65 128
135 314 182 512 182 770 0 130 -1 137 -31 201 -39 82 -71 112 -143 135 -64 20
-205 23 -291 5 -30 -6 -71 -13 -90 -16 -125 -20 -410 -113 -630 -207 -364
-155 -615 -295 -901 -504 -52 -38 -112 -81 -134 -96 -22 -15 -53 -39 -70 -54
-73 -63 -129 -110 -148 -123 -18 -13 -20 -13 -14 0 82 195 81 192 83 278 2 76
5 88 29 119 26 32 107 78 156 87 49 10 49 44 1 46 -15 1 -20 3 -10 6 22 6 32
34 16 44 -42 27 -179 -75 -222 -165 -8 -17 -26 -41 -40 -54 -14 -12 -26 -32
-27 -44 -6 -195 -58 -353 -150 -455 -29 -33 -59 -43 -59 -20 0 6 13 26 29 43
37 39 59 103 55 161 -5 86 -56 126 -161 124 l-65 -1 6 38 c8 56 29 111 88 222
29 55 59 111 65 124 48 91 214 202 331 223 52 9 187 9 247 1 28 -4 70 -10 95
-13 91 -11 108 -16 125 -35 10 -11 34 -23 54 -26 20 -4 44 -8 53 -10 26 -4 83
14 112 37 32 25 33 59 4 86 -26 24 -92 44 -123 38 -11 -2 -27 -4 -36 -4 -9 -1
-33 -13 -54 -27 -31 -21 -45 -24 -79 -20 -23 4 -63 9 -91 12 -27 3 -68 9 -90
13 -58 10 -172 6 -235 -9 -170 -40 -296 -137 -386 -297 -52 -92 -107 -214
-126 -274 l-11 -37 -41 19 c-65 29 -129 22 -179 -20 -22 -18 -31 -8 -48 53 -6
22 -43 103 -82 180 -60 116 -84 153 -142 212 -144 149 -327 203 -564 167 -172
-26 -179 -26 -208 -4 -31 25 -90 42 -123 36 -14 -3 -36 -7 -49 -10 -33 -6 -71
-44 -71 -70 0 -78 158 -109 239 -48 20 16 47 28 61 29 31 2 113 13 160 22 19
3 80 6 135 6 141 -1 238 -35 341 -118 48 -39 121 -123 117 -135 -1 -3 4 -13
12 -21 16 -19 105 -193 105 -207 0 -5 6 -23 14 -39 8 -16 17 -45 20 -64 l6
-36 -39 4 c-56 5 -125 -27 -147 -70 -37 -71 -15 -182 45 -224 25 -18 27 -46 5
-65 -15 -12 -23 -7 -64 39 -26 29 -59 74 -73 100 -32 59 -65 177 -72 257 -9
108 -16 135 -36 145 -10 6 -25 25 -33 43 -42 100 -236 233 -236 161 0 -7 8
-18 18 -23 15 -9 15 -10 -4 -11 -26 0 -50 -25 -35 -35 6 -3 32 -12 58 -20 61
-18 126 -60 146 -95 11 -18 16 -45 13 -81 -3 -58 13 -131 44 -204 23 -55 24
-55 -105 50 -197 160 -286 217 -710 455 -16 9 -84 40 -150 70 -66 29 -142 63
-170 76 -27 12 -97 41 -154 64 -57 22 -117 48 -132 55 -73 38 -466 148 -574
160 -84 10 -148 11 -195 3z"/>
</g>
</svg>
